<svg width="42" height="42" viewBox="0 0 42 42" fill="none" xmlns="http://www.w3.org/2000/svg">
<path d="M12.25 19.25H15.75V22.75H12.25V19.25ZM12.25 26.25H15.75V29.75H12.25V26.25ZM19.25 19.25H22.75V22.75H19.25V19.25ZM19.25 26.25H22.75V29.75H19.25V26.25ZM26.25 19.25H29.75V22.75H26.25V19.25ZM26.25 26.25H29.75V29.75H26.25V26.25Z" fill="white"/>
<path d="M8.75 38.5H33.25C35.1803 38.5 36.75 36.9302 36.75 35V10.5C36.75 8.56975 35.1803 7 33.25 7H29.75V3.5H26.25V7H15.75V3.5H12.25V7H8.75C6.81975 7 5.25 8.56975 5.25 10.5V35C5.25 36.9302 6.81975 38.5 8.75 38.5ZM33.25 14L33.2517 35H8.75V14H33.25Z" fill="white"/>
</svg>
