<svg width="75" height="75" viewBox="0 0 75 75" fill="none" xmlns="http://www.w3.org/2000/svg">
<path d="M37.4993 12.7843C23.8707 12.7843 12.7833 23.8714 12.7833 37.4998C12.7833 51.1286 23.8707 62.2159 37.4993 62.2159C51.1279 62.2159 62.2152 51.1286 62.2152 37.4998C62.2152 23.8714 51.1279 12.7843 37.4993 12.7843ZM37.4993 62.9257C23.4792 62.9257 12.0734 51.5196 12.0734 37.4998C12.0734 23.4804 23.4792 12.0743 37.4993 12.0743C51.5191 12.0743 62.925 23.4804 62.925 37.4998C62.925 51.5196 51.5191 62.9257 37.4993 62.9257Z" fill="#EC1C26"/>
<path d="M37.4993 0.710709C17.2134 0.710709 0.71003 17.2146 0.71003 37.4998C0.71003 57.786 17.2134 74.29 37.4993 74.29C57.7852 74.29 74.2889 57.786 74.2889 37.4998C74.2889 17.2146 57.7852 0.710709 37.4993 0.710709ZM37.4993 75C16.8221 75 0 58.1779 0 37.4998C0 16.8227 16.8221 0.000656128 37.4993 0.000656128C58.1768 0.000656128 74.9989 16.8227 74.9989 37.4998C74.9989 58.1779 58.1768 75 37.4993 75Z" fill="#EC1C26"/>
<path d="M22.7759 62.2853C23.2623 62.5694 23.625 62.9369 23.8629 63.3885C24.1009 63.8396 24.2058 64.3355 24.1773 64.877C24.1492 65.4179 23.9759 65.9606 23.6579 66.5042C23.3955 66.9543 23.0929 67.3036 22.7511 67.5533C22.4092 67.8023 22.048 67.9673 21.668 68.047C21.2884 68.1267 20.9105 68.1308 20.535 68.0589C20.1599 67.9867 19.8047 67.8528 19.4701 67.6573C19.1404 67.4646 18.8596 67.2553 18.6274 67.0284C18.3951 66.8016 18.1745 66.5361 17.9662 66.2319C18.1101 66.0703 18.2474 65.8892 18.3785 65.6889C18.5095 65.4879 18.6377 65.2805 18.7629 65.0662C18.8464 65.0795 18.9224 65.0995 18.9914 65.1261C19.0599 65.1524 19.1366 65.1897 19.2201 65.2382C19.0139 65.616 18.9022 65.9329 18.8852 66.19C18.8686 66.4468 18.925 66.6625 19.0551 66.8364C19.1847 67.0103 19.3651 67.1645 19.5952 67.2988C19.9246 67.4916 20.2421 67.5963 20.5479 67.6137C20.8537 67.6303 21.1397 67.5818 21.4066 67.468C21.6732 67.3536 21.9169 67.1886 22.1371 66.9736C22.3576 66.7588 22.5485 66.5126 22.7105 66.2353C22.9823 65.7692 23.1493 65.3005 23.2114 64.8283C23.2735 64.3557 23.2193 63.9228 23.0495 63.5283C22.8796 63.1344 22.5856 62.8156 22.167 62.5715C21.9158 62.4246 21.6351 62.3171 21.3248 62.2477C21.0141 62.1784 20.7077 62.1507 20.4057 62.1632C20.3894 62.1189 20.3819 62.0634 20.3819 61.997C20.3821 61.9303 20.3905 61.8775 20.4065 61.838C20.8557 61.7777 21.2635 61.7791 21.6299 61.8422C21.9967 61.9052 22.3787 62.0531 22.7759 62.2853Z" fill="#2B9740"/>
<path d="M19.9682 60.4735C19.9259 60.5249 19.8801 60.5754 19.8312 60.6253C19.7824 60.6751 19.7331 60.7155 19.6846 60.746C19.5546 60.6468 19.445 60.5826 19.356 60.5519C19.2672 60.522 19.1836 60.5277 19.106 60.5699C19.0284 60.6113 18.9392 60.6931 18.8391 60.8147L16.9146 63.15L16.2837 62.6299L18.208 60.2947C18.3083 60.1731 18.3728 60.0713 18.4012 59.9888C18.4299 59.9063 18.4209 59.8244 18.3741 59.7426C18.3277 59.6614 18.2431 59.566 18.1207 59.4578C18.1422 59.4126 18.1739 59.36 18.2153 59.2996C18.257 59.2399 18.299 59.1844 18.3412 59.1333C18.4504 59.2389 18.5731 59.3494 18.709 59.4655C18.845 59.5811 18.9808 59.6957 19.1164 59.8071C19.2099 59.8842 19.3087 59.9638 19.4138 60.0463C19.5185 60.1288 19.6187 60.2073 19.7141 60.282C19.8094 60.357 19.8939 60.4208 19.9682 60.4735ZM18.5949 63.1686C18.6651 63.2268 18.7198 63.2814 18.7593 63.3336C18.7989 63.3857 18.8356 63.4537 18.8692 63.536C18.698 63.6775 18.5412 63.8177 18.3998 63.9557C18.2584 64.0941 18.1391 64.2217 18.0431 64.339C17.9533 64.2572 17.8523 64.1677 17.7394 64.0713C17.6271 63.9744 17.5039 63.871 17.3709 63.7615C17.2375 63.6518 17.0949 63.534 16.9431 63.4091C16.7912 63.2837 16.6307 63.152 16.4626 63.0133C16.2428 62.8323 16.0337 62.6618 15.8354 62.5022C15.6371 62.3427 15.453 62.195 15.2828 62.0586C15.1127 61.9219 14.9691 61.8063 14.8523 61.7098C14.9531 61.5967 15.0578 61.465 15.1656 61.3145C15.2742 61.164 15.3958 60.9878 15.531 60.7855C15.6097 60.7952 15.6829 60.8183 15.7509 60.8549C15.8191 60.8909 15.8856 60.9367 15.9512 60.99C15.7772 61.2397 15.6934 61.4513 15.6992 61.6246C15.7054 61.7986 15.8157 61.9739 16.0309 62.1507L17.3772 63.2608C17.5505 63.403 17.6995 63.4868 17.8243 63.511C17.9495 63.5356 18.0701 63.5153 18.1863 63.4502C18.3027 63.3857 18.439 63.2913 18.5949 63.1686Z" fill="#2B9740"/>
<path d="M18.9694 56.8257C18.906 56.8818 18.8481 56.9284 18.7964 56.9659C18.7448 57.0034 18.6945 57.0317 18.6463 57.0496C18.5291 56.9351 18.4234 56.8583 18.3291 56.8202C18.2351 56.782 18.1338 56.787 18.0258 56.8336C17.9176 56.8805 17.7887 56.97 17.6385 57.1017L14.638 59.7441C14.5288 59.8405 14.4504 59.93 14.4019 60.0125C14.3542 60.0956 14.3437 60.1894 14.3715 60.2938C14.3991 60.3987 14.4768 60.5281 14.6044 60.6824C14.5541 60.7259 14.5048 60.762 14.456 60.789C14.4071 60.8154 14.3544 60.8341 14.298 60.843C14.1648 60.71 13.9953 60.5727 13.7897 60.4312C13.5841 60.2892 13.408 60.1898 13.2614 60.1339C13.2388 60.0803 13.2364 60.02 13.2534 59.9526C13.2708 59.8848 13.3293 59.8071 13.4291 59.7191C13.5339 59.627 13.6458 59.5548 13.7647 59.5022C13.8843 59.4493 14.0431 59.3801 14.2417 59.2939L14.2273 59.0168L16.9617 56.608C17.157 56.4362 17.288 56.2843 17.3542 56.1531C17.4205 56.0221 17.433 55.8947 17.3917 55.7698C17.35 55.6443 17.2717 55.5078 17.157 55.3587C17.1812 55.313 17.2153 55.2671 17.2589 55.22C17.3029 55.1734 17.3563 55.1223 17.4201 55.0661C17.4756 55.139 17.5432 55.2221 17.6229 55.3176C17.7026 55.4128 17.7876 55.5133 17.8774 55.62C17.9671 55.7268 18.06 55.8343 18.1565 55.9438C18.2965 56.1027 18.4449 56.269 18.6012 56.4417C18.7576 56.615 18.8803 56.7427 18.9694 56.8257ZM15.8766 56.5589C15.9891 56.6859 16.0767 56.8083 16.1398 56.9261C16.2032 57.0442 16.2687 57.178 16.3364 57.3284L15.8115 57.7909C15.8267 57.6156 15.8195 57.4471 15.789 57.2841C15.7585 57.1212 15.6732 56.9604 15.5332 56.8008C15.4488 56.7052 15.3386 56.6192 15.2017 56.5416C15.0651 56.4645 14.9029 56.4154 14.7154 56.3945C14.5278 56.3745 14.3187 56.407 14.0878 56.4936C13.857 56.5794 13.6053 56.7427 13.3324 56.9832C13.0915 57.1954 12.9127 57.4115 12.7955 57.6314C12.6786 57.8512 12.6235 58.0612 12.6301 58.2615C12.6367 58.4615 12.7039 58.6348 12.8322 58.7798C12.9483 58.9121 13.1043 59.0043 13.3005 59.0576C13.4968 59.1105 13.7263 59.0944 13.9894 59.0078C14.2526 58.9217 14.543 58.7379 14.8613 58.458L14.3126 59.2922C14.1152 59.3613 13.9588 59.4084 13.8435 59.4334C13.728 59.4578 13.6424 59.4752 13.5858 59.4842C13.4814 59.5037 13.3505 59.5037 13.193 59.4857C13.0353 59.4668 12.8731 59.4174 12.7064 59.3386C12.5399 59.2594 12.3905 59.1445 12.2585 58.9946C12.022 58.7262 11.8733 58.4518 11.8116 58.1709C11.7503 57.89 11.7811 57.6044 11.9045 57.3145C12.0282 57.0233 12.256 56.7322 12.5878 56.4403C12.9245 56.1435 13.2909 55.946 13.6878 55.8469C14.0848 55.7476 14.4737 55.7557 14.8546 55.8725C15.2357 55.989 15.5765 56.2176 15.8766 56.5589Z" fill="#2B9740"/>
<path d="M14.0699 54.5584C13.9974 54.6029 13.934 54.6383 13.8789 54.6639C13.8241 54.6903 13.7686 54.7104 13.7124 54.7228C13.6181 54.5674 13.5028 54.4803 13.3665 54.46C13.2306 54.4399 13.0278 54.5114 12.7584 54.6751L11.1741 55.6379C10.905 55.8012 10.748 55.948 10.703 56.0783C10.6579 56.2086 10.6825 56.3508 10.7768 56.506C10.7398 56.5507 10.6957 56.5913 10.6444 56.6295C10.593 56.6677 10.5338 56.7071 10.4665 56.7482C10.4028 56.631 10.3293 56.4985 10.2461 56.35C10.1635 56.2025 10.073 56.048 9.97567 55.8877C9.87821 55.7268 9.78291 55.5756 9.68922 55.4343C9.5964 55.2921 9.51248 55.166 9.43792 55.055C9.50519 55.0141 9.56759 54.9802 9.62519 54.9522C9.6827 54.9246 9.73944 54.904 9.79533 54.8913C9.89003 55.0466 10.0051 55.1339 10.1414 55.1541C10.2776 55.1743 10.4803 55.1021 10.7494 54.9393L12.3337 53.976C12.6031 53.8123 12.7602 53.6656 12.8052 53.5357C12.8503 53.4056 12.8253 53.2627 12.731 53.1074C12.7681 53.0637 12.8111 53.0233 12.8596 52.9867C12.9085 52.9498 12.9689 52.9099 13.0413 52.8662C13.1002 52.9858 13.1723 53.1199 13.258 53.2662C13.3432 53.4123 13.4348 53.5663 13.5323 53.7264C13.63 53.8867 13.7239 54.0392 13.8148 54.1821C13.9053 54.3256 13.9905 54.451 14.0699 54.5584ZM12.807 53.8806L12.341 54.1634L9.15816 53.2473L9.61655 52.9693L12.807 53.8806ZM12.5647 52.0811C12.4922 52.1257 12.4287 52.161 12.3736 52.1873C12.3188 52.213 12.2634 52.233 12.2072 52.2455C12.113 52.0901 11.9974 52.0028 11.8611 51.9826C11.7253 51.9624 11.5225 52.0342 11.2532 52.1976L9.66881 53.1607C9.39978 53.3237 9.24283 53.4705 9.19767 53.6011C9.15258 53.7314 9.17718 53.8734 9.27155 54.0294C9.23443 54.0732 9.19039 54.114 9.13913 54.1523C9.08779 54.1904 9.02881 54.2297 8.96127 54.2707C8.89751 54.1536 8.82396 54.021 8.74108 53.8734C8.6583 53.7252 8.56787 53.5705 8.47032 53.4104C8.37296 53.2502 8.27756 53.0984 8.18404 52.9571C8.09105 52.8147 8.00714 52.6885 7.93274 52.5777C7.99986 52.5369 8.06235 52.5026 8.11986 52.475C8.17746 52.4471 8.23427 52.4265 8.29015 52.414C8.3847 52.5693 8.50025 52.6565 8.63609 52.6766C8.77237 52.6968 8.97516 52.6249 9.24421 52.4618L10.8285 51.4988C11.0978 51.3351 11.2549 51.1888 11.3 51.0584C11.345 50.9283 11.32 50.7852 11.2258 50.6299C11.2628 50.5862 11.3059 50.5461 11.3544 50.5092C11.4033 50.4726 11.4636 50.4324 11.5359 50.3887C11.5949 50.5085 11.667 50.6426 11.7527 50.7887C11.838 50.9351 11.9295 51.0889 12.0273 51.2491C12.1247 51.4101 12.2185 51.5618 12.3094 51.7048C12.3999 51.8483 12.4853 51.9736 12.5647 52.0811Z" fill="#2B9740"/>
<path d="M10.2561 49.1648L9.74642 49.359L6.78203 47.8823L7.28301 47.6916L10.2561 49.1648ZM11.3751 50.0607C11.2961 50.0912 11.2271 50.1143 11.1681 50.1301C11.1096 50.1461 11.0514 50.1551 10.9941 50.1579C10.9293 49.9879 10.8318 49.8804 10.7016 49.836C10.5711 49.7917 10.3588 49.8257 10.0643 49.9381L8.33195 50.5981C8.03769 50.7104 7.85667 50.8263 7.7888 50.9463C7.72117 51.0661 7.71946 51.2111 7.78426 51.381C7.73994 51.417 7.68894 51.4497 7.6317 51.478C7.57451 51.5063 7.50904 51.5341 7.43514 51.5624C7.39358 51.4356 7.34533 51.2921 7.29056 51.1313C7.23586 50.9704 7.17475 50.8026 7.10825 50.627C7.0413 50.4519 6.97471 50.2854 6.90853 50.1294C6.84264 49.9727 6.78307 49.8332 6.73001 49.7114C6.80354 49.6829 6.87116 49.6607 6.93289 49.6434C6.99417 49.6267 7.05383 49.6171 7.11134 49.6142C7.17578 49.7843 7.27358 49.8916 7.40396 49.9359C7.53432 49.9802 7.74645 49.9464 8.04078 49.8341L9.77308 49.1738C10.0675 49.0617 10.2488 48.9458 10.3164 48.8258C10.3843 48.706 10.3857 48.561 10.3209 48.3912C10.3653 48.3552 10.4149 48.3231 10.4693 48.2961C10.5237 48.2683 10.5905 48.2402 10.67 48.2095C10.7061 48.3385 10.7529 48.4827 10.8105 48.6422C10.868 48.8023 10.9303 48.9695 10.9973 49.1449C11.0641 49.3202 11.1289 49.4874 11.1925 49.644C11.2555 49.8022 11.3165 49.9409 11.3751 50.0607ZM10.3431 47.352C10.264 47.3823 10.1947 47.4053 10.1361 47.4211C10.0774 47.4371 10.0193 47.4461 9.96174 47.449C9.89694 47.2791 9.79948 47.1714 9.66921 47.1277C9.53876 47.0834 9.32663 47.1168 9.03195 47.2291L7.29989 47.8891C7.00556 48.0015 6.82462 48.118 6.75676 48.2373C6.68911 48.3571 6.6874 48.5022 6.75219 48.6718C6.70745 48.708 6.6569 48.7407 6.5993 48.769C6.54212 48.7975 6.47656 48.8254 6.40301 48.8535C6.36145 48.7266 6.31294 48.5831 6.25817 48.4225C6.20373 48.2621 6.14271 48.0938 6.07585 47.9183C6.00891 47.743 5.94267 47.5771 5.87649 47.4204C5.81066 47.2644 5.75102 47.1251 5.69762 47.0024C5.77141 46.9746 5.83903 46.9518 5.90041 46.9351C5.96222 46.9177 6.02144 46.9081 6.07895 46.9059C6.14374 47.0759 6.24119 47.1826 6.37157 47.2269C6.50192 47.2715 6.71441 47.2374 7.00874 47.1251L8.74069 46.4651C9.03546 46.3527 9.21639 46.2369 9.28402 46.1171C9.3519 45.9971 9.35335 45.8522 9.28882 45.6822C9.33321 45.6462 9.38276 45.6144 9.43719 45.5874C9.49161 45.5602 9.55847 45.531 9.63757 45.5012C9.67366 45.6302 9.72079 45.7743 9.77833 45.9339C9.83592 46.0934 9.89789 46.2612 9.9649 46.4359C10.0318 46.6121 10.097 46.7784 10.16 46.9357C10.2231 47.0933 10.2842 47.232 10.3431 47.352ZM6.02067 49.5339C6.13268 49.8286 6.18609 50.1127 6.18052 50.3874C6.17494 50.6619 6.10499 50.9037 5.97121 51.1139C5.8369 51.3239 5.63144 51.4815 5.35409 51.5868C5.26562 51.4911 5.18593 51.3838 5.11453 51.2651C5.04346 51.1466 4.98656 51.0141 4.94395 50.8684C5.28329 50.6869 5.51179 50.4912 5.62931 50.2812C5.74716 50.071 5.75616 49.836 5.65707 49.5754C5.55997 49.3208 5.40054 49.1609 5.17794 49.097C4.95569 49.0325 4.66206 49.0567 4.29666 49.1699C4.23154 49.0325 4.17916 48.8952 4.14 48.758C4.10039 48.6207 4.08137 48.4938 4.08205 48.3767C4.36499 48.2683 4.63299 48.2525 4.88532 48.3282C5.13774 48.4037 5.36103 48.5472 5.55482 48.7587C5.74896 48.9702 5.90418 49.2287 6.02067 49.5339Z" fill="#2B9740"/>
<path d="M8.15827 41.8798C8.44668 41.9871 8.68111 42.146 8.86066 42.3562C9.04023 42.5662 9.16537 42.84 9.23573 43.1784C9.29855 43.4807 9.28091 43.7892 9.182 44.1034C9.0835 44.4183 8.89778 44.6998 8.62454 44.948C8.35136 45.1968 7.9835 45.3697 7.52083 45.4651C7.16513 45.5393 6.80908 45.5393 6.45338 45.4645C6.09768 45.3895 5.78698 45.2363 5.52214 45.0035C5.2573 44.7711 5.08365 44.4563 5.00075 44.0584C4.94418 43.7859 4.92481 43.5288 4.94247 43.2865C4.96022 43.0447 5.02021 42.8264 5.12205 42.6322C5.29894 42.6204 5.47156 42.6008 5.63931 42.5752C5.80712 42.5497 5.97735 42.519 6.14928 42.4837C6.18296 42.5262 6.21381 42.5864 6.24219 42.6634C6.271 42.7411 6.29182 42.8124 6.30527 42.8775C5.96894 42.985 5.72604 43.1411 5.57655 43.3449C5.42717 43.5496 5.3796 43.7818 5.43378 44.0431C5.49403 44.3336 5.67889 44.5368 5.98746 44.6518C6.29601 44.767 6.70538 44.7718 7.21536 44.6658C7.51208 44.6039 7.78208 44.4966 8.0255 44.3441C8.26925 44.1914 8.45302 44.0029 8.57635 43.7796C8.70022 43.5558 8.73337 43.3074 8.67689 43.0351C8.63738 42.8451 8.55553 42.6744 8.43151 42.524C8.30739 42.3735 8.14892 42.2502 7.95546 42.1543C7.96935 42.1017 7.99439 42.0505 8.03004 41.9999C8.06603 41.9492 8.10864 41.909 8.15827 41.8798Z" fill="#2B9740"/>
<path d="M8.80589 41.3183C8.7213 41.3232 8.64852 41.3251 8.58741 41.3223C8.52681 41.3203 8.46853 41.312 8.41308 41.2975C8.40167 41.1158 8.33997 40.9846 8.22864 40.9036C8.11737 40.8233 7.90456 40.7926 7.59008 40.8121L5.74026 40.9293C5.42579 40.9493 5.21846 41.007 5.11783 41.1011C5.01815 41.1955 4.97332 41.3335 4.98482 41.5145C4.93176 41.536 4.87346 41.5518 4.81038 41.5623C4.7473 41.572 4.6766 41.5797 4.59792 41.5845C4.5955 41.4513 4.59175 41.2953 4.58651 41.1165C4.5812 40.9374 4.57161 40.7393 4.55763 40.5216C4.54863 40.3768 4.53826 40.2381 4.52678 40.1047C4.51546 39.9724 4.50466 39.8482 4.4942 39.7339C4.48384 39.6189 4.47346 39.5224 4.4624 39.4443C4.52891 39.4399 4.5986 39.4386 4.67144 39.4399C4.74423 39.4421 4.8056 39.4495 4.85521 39.4649C4.87706 39.7124 4.93209 39.8877 5.02048 39.992C5.10892 40.0951 5.28643 40.139 5.55231 40.1221L7.71976 39.9849C7.87713 39.9746 7.99978 39.9487 8.08832 39.9066C8.17668 39.8643 8.23489 39.8006 8.26265 39.7137C8.29034 39.6266 8.29969 39.5079 8.29008 39.3567C8.26849 39.0184 8.18355 38.7779 8.03485 38.6348C7.88612 38.4929 7.67914 38.4306 7.41292 38.4472C7.14078 38.4644 6.93593 38.5365 6.7982 38.6634C6.66073 38.7911 6.56987 38.9372 6.52581 39.1044C6.48175 39.2709 6.46411 39.4241 6.47275 39.5628C6.47585 39.611 6.48313 39.6986 6.49419 39.8254C6.50531 39.9522 6.51955 40.0604 6.53755 40.1506L6.18356 40.1728C6.16453 40.0591 6.14825 39.9461 6.13504 39.8344C6.12185 39.7236 6.11224 39.6189 6.10634 39.5224C6.06742 38.9117 6.13129 38.431 6.29695 38.081C6.46299 37.7302 6.77265 37.5408 7.22606 37.5118C7.47429 37.4965 7.70133 37.5395 7.90833 37.6415C8.11498 37.744 8.28246 37.9187 8.41034 38.1655C8.53831 38.4124 8.61519 38.7413 8.64124 39.1522C8.66748 39.5696 8.69069 39.9108 8.71084 40.1769C8.73063 40.4424 8.74761 40.6629 8.76192 40.8385C8.77572 41.0131 8.79064 41.1733 8.80589 41.3183Z" fill="#2B9740"/>
<path d="M8.89787 33.751C8.67424 33.8701 8.41043 34.0283 8.1064 34.2258C7.80231 34.4229 7.49736 34.6322 7.19109 34.8536C6.88469 35.0754 6.61599 35.2874 6.38448 35.4912L6.52837 35.5136L5.79573 34.5435C5.62825 34.3153 5.48966 34.1519 5.38011 34.0534C5.27024 33.9555 5.18528 33.9035 5.12494 33.898C5.07669 33.8938 5.03856 33.9125 5.01018 33.9555C4.98216 33.9992 4.96382 34.063 4.9561 34.147C4.8944 34.1593 4.83267 34.1677 4.77139 34.1712C4.71028 34.1747 4.64661 34.1734 4.58034 34.1677C4.59833 34.0354 4.61428 33.9134 4.62749 33.8023C4.64068 33.6907 4.65165 33.5866 4.66041 33.4903C4.6694 33.394 4.67746 33.3064 4.6843 33.2283C4.694 33.1256 4.70412 32.9988 4.71482 32.8476C4.72562 32.6965 4.73532 32.5389 4.74431 32.3754C4.80457 32.3809 4.8691 32.3915 4.93775 32.4073C5.00599 32.4226 5.06633 32.4448 5.11869 32.474C5.10798 32.5883 5.11594 32.7033 5.14201 32.8185C5.16755 32.9328 5.21444 33.0563 5.28128 33.1866C5.34857 33.3176 5.44466 33.4646 5.56936 33.6283L6.3831 34.7066L6.09186 34.6982C6.32868 34.5067 6.58237 34.3112 6.85281 34.1108C7.1239 33.9105 7.46675 33.6713 7.88141 33.3931C8.06304 33.2698 8.19726 33.168 8.28349 33.0875C8.36979 33.0078 8.4291 32.9244 8.46133 32.8393C8.49357 32.7539 8.51884 32.6423 8.53763 32.5045C8.62221 32.5119 8.69576 32.5216 8.75841 32.5334C8.82123 32.5453 8.87602 32.5626 8.9228 32.5848C8.90926 32.7298 8.89982 32.8656 8.89443 32.9931C8.88885 33.1199 8.88501 33.2448 8.88295 33.3661C8.88124 33.4875 8.88604 33.6158 8.89787 33.751ZM8.54875 36.9675C8.48841 36.962 8.42397 36.9528 8.35496 36.9405C8.28633 36.928 8.22254 36.91 8.16358 36.8863C8.18579 36.6451 8.14515 36.4757 8.04161 36.3781C7.93791 36.2805 7.73545 36.2173 7.43348 36.1896L5.64187 36.0259C5.49695 36.0128 5.37659 36.0156 5.2806 36.0336C5.1846 36.0523 5.10833 36.1078 5.05106 36.1999C4.9939 36.2921 4.9561 36.4404 4.93699 36.6458C4.87081 36.6394 4.81126 36.6278 4.75776 36.6111C4.70471 36.5936 4.6556 36.5681 4.60983 36.5335C4.61806 36.4433 4.61496 36.3136 4.59972 36.1446C4.58479 35.9759 4.56055 35.8109 4.5266 35.6501C4.49257 35.4886 4.45477 35.3692 4.41321 35.2931C4.43644 35.2402 4.47664 35.1965 4.53457 35.1627C4.59243 35.1281 4.67882 35.1162 4.79359 35.1265L7.50833 35.3756C7.80994 35.4034 8.02034 35.3811 8.13931 35.3104C8.25855 35.2391 8.32644 35.1066 8.34425 34.9137C8.4063 34.9014 8.47702 34.8957 8.55562 34.8964C8.63472 34.8979 8.69532 34.8999 8.73767 34.904C8.71092 35.06 8.68848 35.2251 8.66943 35.3997C8.65032 35.5746 8.63301 35.7492 8.61664 35.9241C8.60628 36.0391 8.59685 36.1582 8.58862 36.2818C8.58022 36.4058 8.57234 36.5251 8.56505 36.6401C8.55742 36.7553 8.55185 36.8641 8.54875 36.9675Z" fill="#2B9740"/>
<path d="M8.95572 30.6697C8.98839 30.5402 8.97931 30.3974 8.92805 30.2405C8.87704 30.0845 8.77196 29.9375 8.61288 29.8003C8.45371 29.6636 8.22736 29.5577 7.93371 29.4835L7.59891 29.3995C7.57939 29.5506 7.56523 29.713 7.55582 29.8848C7.5468 30.0575 7.55659 30.2225 7.58573 30.38C7.61469 30.5374 7.67547 30.6745 7.7676 30.791C7.85991 30.9082 8.00313 30.9916 8.19683 31.0401C8.41421 31.0954 8.58615 31.0822 8.71265 31.0019C8.83925 30.9214 8.92033 30.8105 8.95572 30.6697ZM9.76038 29.5978C9.7147 29.6553 9.64913 29.6935 9.56308 29.7123C9.47711 29.731 9.35171 29.7198 9.18732 29.6783C9.13426 29.6652 9.0723 29.6463 9.00013 29.6215C8.92805 29.5972 8.86497 29.5686 8.81088 29.5362L8.81499 29.5188C8.90482 29.5603 8.99601 29.6257 9.08917 29.7143C9.18251 29.8038 9.25742 29.9085 9.31417 30.029C9.37725 30.1512 9.41745 30.2953 9.43452 30.4625C9.45183 30.6289 9.43305 30.8209 9.37837 31.0387C9.2847 31.4082 9.13016 31.6696 8.91381 31.8208C8.69749 31.9726 8.44542 32.0121 8.15767 31.9392C7.92857 31.8818 7.74687 31.7784 7.61272 31.6285C7.47858 31.4789 7.37908 31.304 7.31419 31.103C7.24905 30.9027 7.21023 30.6925 7.19634 30.4742C7.18314 30.2552 7.18314 30.0443 7.19667 29.8411C7.21056 29.6388 7.2241 29.4613 7.23766 29.308C6.99663 29.2476 6.80782 29.2046 6.67042 29.1789C6.53319 29.1541 6.42151 29.1443 6.33554 29.1506C6.24957 29.1574 6.17056 29.1796 6.09839 29.2171C5.99236 29.2656 5.90596 29.3301 5.8391 29.41C5.77183 29.4896 5.72443 29.5853 5.6963 29.697C5.64737 29.8912 5.66887 30.0588 5.76112 30.201C5.85343 30.3432 5.97299 30.4577 6.11963 30.5442C6.26664 30.6317 6.40077 30.6934 6.52281 30.73C6.50653 30.7952 6.48152 30.8744 6.44817 30.9694C6.4149 31.0642 6.38063 31.1322 6.34524 31.173C6.20132 31.1239 6.03778 31.0796 5.85402 31.0392C5.67061 30.9997 5.51041 30.9784 5.37378 30.9749C5.31113 30.703 5.27855 30.4244 5.27539 30.1393C5.27229 29.8543 5.29904 29.5998 5.35519 29.3766C5.40996 29.1596 5.48794 28.9808 5.58883 28.8406C5.68996 28.7006 5.80208 28.5959 5.92584 28.5273C6.11125 28.4114 6.32869 28.3601 6.57861 28.3734C6.82814 28.3866 7.14989 28.4426 7.54338 28.542L8.51269 28.7866C8.67699 28.8281 8.81115 28.8476 8.91484 28.8454C9.01812 28.8434 9.1017 28.8101 9.16511 28.7449C9.22828 28.68 9.28579 28.569 9.33775 28.4136C9.39636 28.4281 9.46195 28.4483 9.53359 28.4726C9.60567 28.4968 9.6709 28.5288 9.72953 28.5689C9.69824 28.7173 9.68514 28.8871 9.69001 29.0784C9.69482 29.2704 9.71812 29.4438 9.76038 29.5978Z" fill="#2B9740"/>
<path d="M14.0369 23.2467C13.7541 23.0949 13.4671 22.9603 13.1758 22.8452C12.8845 22.7295 12.6242 22.6428 12.3943 22.586L12.2814 22.5283L12.6014 21.9058C12.713 21.8608 12.8305 21.8703 12.9546 21.9341C13.094 22.0465 13.2764 22.1726 13.5011 22.3122C13.7256 22.4515 13.9887 22.5985 14.2903 22.7536C14.2759 22.8348 14.246 22.9202 14.2002 23.0088C14.1545 23.0977 14.1001 23.1767 14.0369 23.2467ZM9.03267 20.4802C9.10826 20.5184 9.17134 20.5544 9.22236 20.5878C9.2737 20.6211 9.31939 20.6577 9.35923 20.6986C9.27645 20.8609 9.26185 21.0051 9.31585 21.1313C9.36994 21.2581 9.53742 21.3932 9.81719 21.537L11.466 22.3848C11.7461 22.529 11.9534 22.586 12.088 22.5562C12.2224 22.527 12.3313 22.4313 12.4142 22.2698C12.471 22.2782 12.529 22.2946 12.5886 22.3183C12.6478 22.3418 12.7126 22.3716 12.7827 22.4078C12.7356 22.4855 12.6808 22.5818 12.6187 22.6962C12.5562 22.8111 12.4679 22.9764 12.3531 23.1934C12.2381 23.4104 12.0838 23.707 11.89 24.0842L11.5076 24.8276C11.311 25.2103 11.1586 25.5098 11.0507 25.7268C10.9426 25.9438 10.859 26.1123 10.8011 26.2323C10.7429 26.3524 10.6971 26.4513 10.6635 26.529C10.5937 26.493 10.5317 26.4583 10.478 26.4237C10.4239 26.389 10.3771 26.3515 10.3369 26.31C10.4201 26.1483 10.4343 26.0048 10.3802 25.878C10.326 25.7511 10.159 25.616 9.87891 25.4716L8.23016 24.6244C7.94996 24.48 7.74263 24.4234 7.60815 24.4531C7.47402 24.4822 7.36517 24.5779 7.28194 24.7396C7.22502 24.7311 7.16854 24.7153 7.11171 24.6931C7.05523 24.6709 6.98932 24.6402 6.91382 24.6016C6.98555 24.4884 7.06149 24.3574 7.14164 24.2077C7.22195 24.0588 7.30483 23.8999 7.39079 23.7327C7.47685 23.5664 7.55716 23.4062 7.63207 23.2544C7.70665 23.1019 7.76947 22.9639 7.81934 22.8397C7.89487 22.8785 7.95828 22.9147 8.00929 22.9472C8.0602 22.9803 8.10606 23.0178 8.14626 23.0589C8.06303 23.2204 8.04888 23.3645 8.10279 23.4907C8.15697 23.6177 8.3241 23.7529 8.60412 23.897L10.253 24.7445C10.5223 24.8829 10.7241 24.9378 10.8587 24.9079C10.9931 24.8781 11.1016 24.7824 11.1848 24.6209L11.534 23.942C11.6168 23.7805 11.6314 23.6364 11.5773 23.5096C11.5233 23.3832 11.3617 23.2509 11.0919 23.1122L9.44349 22.2641C9.16338 22.1206 8.95614 22.0631 8.82148 22.093C8.68708 22.1228 8.57823 22.2185 8.49527 22.38C8.43852 22.371 8.38161 22.3558 8.32513 22.3335C8.26856 22.3113 8.20238 22.2801 8.12688 22.2413C8.19854 22.129 8.27446 21.9973 8.35495 21.8481C8.43501 21.6985 8.51824 21.5403 8.60412 21.3733C8.68983 21.2061 8.77022 21.0466 8.84513 20.8941C8.91995 20.7422 8.98245 20.6042 9.03267 20.4802Z" fill="#2B9740"/>
<path d="M14.4196 20.2328C14.1631 20.5781 13.8722 20.8076 13.547 20.9204C13.2216 21.0334 12.8839 21.0494 12.5341 20.9669C12.184 20.8844 11.8511 20.7256 11.5345 20.4914C11.2233 20.2597 10.9813 19.9866 10.809 19.6697C10.6363 19.3529 10.5538 19.022 10.5611 18.6768C10.5687 18.3317 10.6876 18.0028 10.919 17.6916C11.1533 17.3752 11.4102 17.1723 11.6888 17.0808C11.968 16.9899 12.2567 16.9816 12.5559 17.0564C12.8548 17.1315 13.1501 17.2616 13.442 17.4481C13.5249 17.5398 13.5804 17.6374 13.6087 17.7415C13.5474 17.824 13.4556 17.9481 13.3328 18.1138C13.2101 18.2788 13.0721 18.4675 12.9195 18.6784C12.7666 18.8897 12.6128 19.1067 12.4575 19.3314C12.3025 19.5561 12.1576 19.7689 12.0227 19.9705L11.6507 19.6947L12.7986 18.1472C12.4776 17.9093 12.1739 17.7741 11.8879 17.7428C11.6018 17.7116 11.3793 17.8031 11.2205 18.0175C11.1338 18.1338 11.0842 18.2746 11.0719 18.439C11.0593 18.6033 11.1148 18.7876 11.2382 18.9924C11.3617 19.1969 11.5862 19.42 11.9121 19.662C12.1506 19.8389 12.4055 19.9811 12.6769 20.0877C12.9481 20.1952 13.2149 20.2273 13.477 20.1843C13.7391 20.141 13.9749 19.9782 14.1842 19.6961C14.3032 19.5352 14.3839 19.35 14.4266 19.1407C14.4692 18.9305 14.4675 18.7144 14.4215 18.4917C14.47 18.4675 14.5306 18.4535 14.6041 18.4515C14.6772 18.4495 14.7352 18.4605 14.7778 18.484C14.8737 18.812 14.888 19.1185 14.8197 19.4036C14.7514 19.689 14.6179 19.9651 14.4196 20.2328Z" fill="#2B9740"/>
<path d="M15.2815 16.1662L14.9834 15.8604L16.4678 14.415L16.734 14.6882C16.6082 14.8111 16.4543 14.9632 16.272 15.1448C16.0896 15.3267 15.9083 15.5097 15.728 15.6938C15.5478 15.8775 15.3986 16.0352 15.2815 16.1662ZM17.6216 16.5511C17.5626 16.4908 17.5141 16.4366 17.4759 16.3881C17.4381 16.3409 17.4066 16.2911 17.3817 16.2397C17.5206 16.1037 17.5879 15.965 17.5834 15.8213C17.5789 15.6778 17.4666 15.4928 17.2468 15.2673L15.9537 13.9391C15.7342 13.7133 15.5526 13.5962 15.409 13.5881C15.2655 13.5797 15.1245 13.6431 14.9857 13.7783C14.9345 13.752 14.8845 13.7179 14.836 13.6767C14.7871 13.6354 14.7354 13.5867 14.6804 13.5301C14.7847 13.4371 14.9029 13.3309 15.035 13.2102C15.1671 13.0902 15.3027 12.9623 15.4416 12.8269C15.5807 12.6917 15.713 12.5588 15.8393 12.4273C15.9651 12.2963 16.0736 12.1822 16.1653 12.0848C16.2199 12.1412 16.2674 12.1943 16.3073 12.2439C16.3476 12.2939 16.3801 12.3448 16.4051 12.3964C16.266 12.5315 16.1988 12.6709 16.2032 12.8146C16.2078 12.9585 16.3201 13.1428 16.5399 13.3684L17.833 14.6968C18.0528 14.9226 18.2341 15.0395 18.3776 15.0479C18.5208 15.0564 18.6623 14.9928 18.801 14.8574C18.8523 14.8839 18.9011 14.9166 18.9476 14.9559C18.994 14.9952 19.047 15.045 19.1064 15.1058C19.002 15.19 18.8842 15.2947 18.7517 15.4191C18.6193 15.5435 18.4837 15.6736 18.345 15.8088C18.206 15.9442 18.0736 16.0747 17.9478 16.2022C17.8216 16.3284 17.713 16.4449 17.6216 16.5511ZM15.6098 18.5096C15.5504 18.4486 15.5019 18.3947 15.4642 18.3475C15.4264 18.2997 15.3949 18.2496 15.3699 18.1985C15.5085 18.0631 15.5758 17.9238 15.5714 17.7796C15.5668 17.6361 15.4548 17.4516 15.235 17.2256L13.942 15.8979C13.7221 15.6721 13.5404 15.5549 13.3973 15.5466C13.2538 15.5383 13.1127 15.6019 12.9736 15.7371C12.9226 15.7107 12.8727 15.6767 12.8239 15.6355C12.7754 15.5938 12.7237 15.5451 12.6686 15.4887C12.7725 15.3959 12.8908 15.2894 13.0232 15.1688C13.1553 15.0485 13.2909 14.9208 13.4299 14.7854C13.5689 14.6505 13.7013 14.5171 13.8271 14.3861C13.9533 14.2549 14.0618 14.141 14.153 14.0436C14.2082 14.1 14.2554 14.1531 14.2956 14.2026C14.3354 14.2527 14.368 14.3031 14.3929 14.3551C14.2543 14.4903 14.187 14.6296 14.1915 14.7734C14.196 14.9166 14.3084 15.1016 14.5278 15.3272L15.8209 16.6558C16.0407 16.8811 16.2223 16.9983 16.3659 17.0066C16.509 17.0147 16.6501 16.9518 16.7891 16.8164C16.8402 16.8429 16.8891 16.8756 16.9359 16.9145C16.9822 16.954 17.0353 17.0038 17.0942 17.0648C16.9903 17.1486 16.872 17.2532 16.7399 17.3781C16.6075 17.5023 16.4719 17.6326 16.333 17.7678C16.1939 17.9029 16.0615 18.0339 15.9356 18.161C15.8098 18.2878 15.7009 18.4037 15.6098 18.5096Z" fill="#2B9740"/>
<path d="M20.1243 14.4095C20.0861 14.3547 20.0493 14.2972 20.0147 14.2366C19.9797 14.1763 19.954 14.1179 19.9377 14.0629C20.0684 13.9643 20.1604 13.8764 20.2134 13.7987C20.2664 13.7214 20.283 13.6394 20.2636 13.5534C20.2438 13.4674 20.1893 13.3594 20.0992 13.2302L18.3676 10.7487L19.0385 10.2805L20.7697 12.7621C20.8598 12.8916 20.9407 12.9809 21.0124 13.0309C21.0842 13.0805 21.1656 13.0939 21.2565 13.0711C21.3476 13.0483 21.462 12.9923 21.5996 12.9037C21.6374 12.9366 21.6794 12.9809 21.7258 13.0371C21.7726 13.0932 21.815 13.1488 21.8531 13.2032C21.7217 13.2797 21.582 13.3682 21.434 13.468C21.2856 13.5678 21.1392 13.6681 20.9955 13.7686C20.8959 13.838 20.7922 13.9117 20.6847 13.9905C20.5773 14.0692 20.4746 14.1443 20.3769 14.2165C20.2796 14.2882 20.195 14.3525 20.1243 14.4095ZM17.8976 12.3619C17.823 12.4137 17.7554 12.4519 17.6948 12.4758C17.6337 12.4997 17.5588 12.517 17.47 12.5271C17.38 12.324 17.2874 12.1357 17.1921 11.9621C17.097 11.7886 17.0058 11.6396 16.9192 11.5152C17.0221 11.4509 17.1352 11.3776 17.2586 11.2949C17.3824 11.2128 17.5148 11.1222 17.6563 11.0232C17.7981 10.9245 17.9495 10.8187 18.1111 10.706C18.2723 10.5934 18.4424 10.4747 18.6214 10.3501C18.8551 10.187 19.0753 10.0317 19.2821 9.88334C19.4891 9.73546 19.6812 9.59766 19.8583 9.47039C20.0355 9.34313 20.186 9.23605 20.31 9.14938C20.3919 9.2773 20.4907 9.41356 20.6061 9.55794C20.7218 9.70276 20.8589 9.86733 21.0176 10.0521C20.9871 10.1254 20.9451 10.1894 20.8918 10.2452C20.8384 10.3011 20.7767 10.3531 20.7073 10.4016C20.5139 10.1668 20.333 10.0293 20.1641 9.98845C19.9953 9.94742 19.7962 10.0067 19.5678 10.166L18.1371 11.1643C17.9529 11.2927 17.8328 11.4136 17.7755 11.5272C17.718 11.6413 17.7052 11.7631 17.7366 11.8928C17.7678 12.0225 17.8216 12.1787 17.8976 12.3619Z" fill="#2B9740"/>
<path d="M25.0034 11.5204C24.8505 11.5939 24.7087 11.6451 24.5784 11.6742C24.4476 11.7034 24.301 11.7304 24.138 11.755L23.8348 11.1244C23.9991 11.1865 24.1637 11.2251 24.3287 11.24C24.4939 11.2549 24.6721 11.2161 24.863 11.1242C24.9777 11.0691 25.0907 10.9861 25.2024 10.8753C25.3137 10.7647 25.4045 10.6217 25.4751 10.4466C25.5456 10.2715 25.5706 10.0611 25.5497 9.81576C25.5289 9.57023 25.4403 9.28366 25.2825 8.95607C25.1434 8.66687 24.9836 8.43604 24.8033 8.26402C24.6231 8.09177 24.4358 7.98184 24.2413 7.93401C24.0472 7.88639 23.8624 7.90439 23.6882 7.98886C23.5295 8.06478 23.3983 8.19029 23.2939 8.36451C23.1897 8.53917 23.1434 8.76451 23.1557 9.04142C23.1677 9.31789 23.2654 9.64724 23.4492 10.0293L22.7943 9.27576C22.7811 9.06665 22.7785 8.90363 22.7857 8.7858C22.7929 8.66797 22.7995 8.58042 22.8059 8.52381C22.8156 8.41827 22.8509 8.29211 22.9112 8.14531C22.9718 7.99896 23.0626 7.85568 23.184 7.71679C23.3053 7.57767 23.4563 7.46489 23.6364 7.37822C23.9585 7.22331 24.2628 7.15419 24.5498 7.17065C24.8369 7.18754 25.1034 7.2944 25.3496 7.49188C25.596 7.68958 25.815 7.98733 26.0068 8.38602C26.2008 8.78997 26.292 9.19655 26.2806 9.60533C26.2688 10.0143 26.1553 10.3867 25.9401 10.722C25.7251 11.0575 25.4128 11.3234 25.0034 11.5204ZM23.91 14.426C23.8732 14.3492 23.8438 14.2814 23.822 14.2213C23.7997 14.1614 23.786 14.1056 23.7817 14.0539C23.9238 13.972 24.0261 13.8913 24.0882 13.8107C24.1505 13.7304 24.1735 13.6321 24.1577 13.5152C24.1419 13.3982 24.0906 13.2499 24.0044 13.0695L22.2712 9.46666C22.2082 9.33567 22.1432 9.23583 22.0768 9.16671C22.0098 9.09803 21.9225 9.06315 21.8139 9.06139C21.7058 9.05964 21.5602 9.09957 21.3775 9.18054C21.3484 9.12063 21.3275 9.06336 21.3151 9.00895C21.3022 8.95453 21.2991 8.89924 21.3054 8.84197C21.4693 8.7496 21.6472 8.62386 21.8396 8.46413C22.0316 8.30461 22.1744 8.16177 22.2688 8.03604C22.3256 8.02858 22.3846 8.0424 22.4449 8.07729C22.5053 8.11218 22.5645 8.18942 22.622 8.30944C22.6828 8.43517 22.7219 8.56265 22.7403 8.69145C22.7587 8.82047 22.7826 8.99227 22.8118 9.20665L23.083 9.26765L24.6622 12.5517C24.7752 12.7865 24.8858 12.9532 24.994 13.0526C25.1021 13.1518 25.2222 13.1983 25.3534 13.192C25.485 13.1861 25.6382 13.1476 25.8126 13.0772C25.8499 13.113 25.885 13.1584 25.9182 13.2133C25.9513 13.2679 25.9862 13.3331 26.023 13.4099C25.9383 13.4436 25.8396 13.486 25.7262 13.5373C25.6129 13.5882 25.4929 13.6427 25.3661 13.7004C25.239 13.7581 25.1102 13.8184 24.979 13.8816C24.7881 13.9733 24.588 14.0712 24.3794 14.1748C24.1703 14.279 24.014 14.3624 23.91 14.426Z" fill="#2B9740"/>
<path d="M28.7974 9.46951C28.9253 9.43155 29.0435 9.3508 29.1519 9.22705C29.261 9.1033 29.3336 8.93786 29.3705 8.73138C29.4071 8.52469 29.3826 8.27608 29.2965 7.98513L29.1989 7.65425C29.0587 7.71481 28.9121 7.78502 28.759 7.86511C28.6056 7.9452 28.4687 8.03757 28.348 8.14268C28.2277 8.248 28.1409 8.36999 28.0869 8.50911C28.0333 8.64822 28.0351 8.81344 28.0915 9.00522C28.1553 9.22025 28.2539 9.36155 28.3877 9.42913C28.5213 9.49715 28.658 9.51032 28.7974 9.46951ZM30.1292 9.61543C30.0568 9.60533 29.9906 9.56825 29.9307 9.50374C29.8703 9.43967 29.8161 9.32601 29.7681 9.16342C29.7527 9.11098 29.7371 9.04757 29.7216 8.9734C29.7055 8.89924 29.6981 8.83012 29.6983 8.7667L29.7156 8.76188C29.7257 8.85996 29.7165 8.97164 29.6869 9.09715C29.6579 9.22266 29.6057 9.34071 29.5313 9.45108C29.4583 9.56737 29.3545 9.67576 29.2197 9.7756C29.0848 9.87543 28.9099 9.95728 28.6951 10.0207C28.3293 10.1289 28.0261 10.1289 27.7852 10.0198C27.5445 9.91098 27.3823 9.71416 27.2981 9.42957C27.2307 9.20269 27.2274 8.99403 27.2875 8.80247C27.3479 8.6107 27.4477 8.43604 27.5875 8.27784C27.7268 8.11985 27.8876 7.97899 28.0689 7.85567C28.2508 7.73258 28.432 7.62506 28.6133 7.53356C28.7949 7.44207 28.9549 7.36329 29.0931 7.29703C29.0227 7.05896 28.9635 6.87421 28.9147 6.74321C28.8667 6.61222 28.8182 6.51129 28.7686 6.44063C28.7192 6.36976 28.66 6.31315 28.5904 6.27058C28.495 6.2041 28.3956 6.16241 28.2929 6.14551C28.19 6.12862 28.0831 6.13652 27.973 6.16899C27.7812 6.22582 27.6478 6.33027 27.5726 6.48167C27.4973 6.6335 27.46 6.79456 27.46 6.96549C27.4595 7.13598 27.4747 7.28299 27.505 7.40674C27.4411 7.42583 27.3602 7.44492 27.2616 7.46445C27.1631 7.48398 27.0872 7.48924 27.0339 7.47981C27.0027 7.33104 26.9573 7.16735 26.8983 6.98918C26.8392 6.81079 26.7763 6.66203 26.7094 6.54267C26.9114 6.35023 27.1344 6.18018 27.3781 6.03207C27.6217 5.8844 27.8541 5.77755 28.0748 5.7126C28.2894 5.64919 28.4834 5.62483 28.6552 5.64041C28.8272 5.65599 28.9742 5.69921 29.0962 5.7703C29.2904 5.8708 29.4453 6.03207 29.5614 6.25369C29.6777 6.47508 29.7931 6.78051 29.9081 7.16955L30.1918 8.1282C30.24 8.29079 30.2912 8.41607 30.3456 8.50428C30.4 8.59227 30.4715 8.64712 30.56 8.66819C30.6482 8.68969 30.7728 8.68289 30.933 8.64822C30.9503 8.70615 30.9665 8.77263 30.9826 8.8468C30.9981 8.92096 31.0036 8.99381 30.9995 9.06446C30.856 9.11295 30.7026 9.18865 30.5402 9.29024C30.3774 9.39205 30.2405 9.50023 30.1292 9.61543Z" fill="#2B9740"/>
<path d="M31.9171 9.15203C31.7914 9.16848 31.6742 9.16256 31.5667 9.13425C31.459 9.10573 31.3749 9.07084 31.3146 9.02981C31.2709 8.93173 31.2457 8.80842 31.2384 8.65965C31.2308 8.51088 31.2369 8.39547 31.2566 8.31318C31.3251 8.32262 31.3958 8.32569 31.4686 8.32196C31.5417 8.31889 31.5961 8.31428 31.6321 8.3099C31.8721 8.27786 32.0501 8.15389 32.165 7.93666C32.2798 7.72009 32.3509 7.42497 32.3779 7.05174C32.4053 6.67872 32.4073 6.24295 32.3845 5.74465C32.3766 5.59325 32.3634 5.48069 32.3443 5.40631C32.3252 5.33258 32.275 5.28716 32.1933 5.27049C32.1117 5.25381 31.977 5.25184 31.7892 5.26434C31.7642 5.21256 31.7438 5.15266 31.7288 5.0842C31.7137 5.01596 31.7023 4.95189 31.6942 4.89199C31.8513 4.87729 32.0724 4.85271 32.3581 4.81804C32.6438 4.78337 33.0331 4.73356 33.5255 4.66861C33.85 4.62561 34.1212 4.58853 34.3404 4.55627C34.5591 4.52446 34.7432 4.49747 34.8931 4.47443C35.0427 4.45161 35.1682 4.43054 35.2698 4.41101C35.2799 4.48913 35.2861 4.56022 35.2885 4.62385C35.2911 4.6877 35.2865 4.74783 35.2758 4.80422C35.0954 4.82814 34.969 4.89813 34.8957 5.01464C34.8222 5.13159 34.8064 5.34597 34.8477 5.6582L35.0901 7.49628C35.1312 7.80852 35.2023 8.01126 35.3034 8.10496C35.4043 8.19843 35.5448 8.23354 35.7251 8.20962C35.7504 8.26118 35.7697 8.31669 35.7837 8.37594C35.7975 8.43518 35.8101 8.50715 35.821 8.59097C35.6876 8.59645 35.536 8.60853 35.3679 8.62805C35.1992 8.64714 35.0217 8.66887 34.8358 8.69366C34.6493 8.71824 34.4725 8.74325 34.3046 8.76804C34.137 8.79349 33.988 8.82092 33.8572 8.85032C33.846 8.76607 33.8394 8.69366 33.8377 8.63288C33.8357 8.57188 33.8401 8.5133 33.8513 8.45691C34.0314 8.43321 34.158 8.36277 34.2311 8.24648C34.3044 8.12997 34.3206 7.91537 34.2794 7.60292L34.0117 5.57592C33.9906 5.41355 33.9577 5.29287 33.9136 5.21322C33.8693 5.13357 33.8019 5.08573 33.7115 5.07015C33.6207 5.05479 33.4914 5.05808 33.3234 5.08025C33.1551 5.10241 33.0333 5.13225 32.9593 5.16955C32.8847 5.20685 32.8411 5.26917 32.8279 5.3565C32.815 5.44383 32.8101 5.56977 32.8136 5.7339C32.8224 6.21553 32.824 6.65854 32.8196 7.06249C32.8147 7.46622 32.7845 7.81861 32.7298 8.11922C32.6745 8.4196 32.5824 8.65965 32.4534 8.83848C32.3241 9.0173 32.1457 9.12175 31.9171 9.15203Z" fill="#2B9740"/>
<path d="M36.2319 8.58502C36.2339 8.50055 36.2387 8.4277 36.2464 8.36736C36.2537 8.30702 36.2673 8.24953 36.2866 8.19533C36.4682 8.19994 36.6045 8.14992 36.6945 8.04591C36.7851 7.94234 36.834 7.73301 36.8415 7.41771L36.8856 5.56471C36.8928 5.24962 36.8542 5.03832 36.7689 4.93015C36.6835 4.82219 36.5501 4.76601 36.3684 4.76163C36.3515 4.70677 36.3408 4.64709 36.3362 4.58368C36.3318 4.51983 36.3302 4.44852 36.332 4.36975C36.4652 4.37918 36.6212 4.38905 36.7998 4.39936C36.978 4.40968 37.1765 4.41736 37.3942 4.4224C37.5399 4.42591 37.6788 4.42767 37.8124 4.42767C37.9454 4.42811 38.07 4.42811 38.185 4.42767C38.3 4.42745 38.3972 4.42504 38.4762 4.42065C38.4744 4.48779 38.4696 4.55713 38.4619 4.62954C38.4544 4.70194 38.4408 4.76228 38.4215 4.81034C38.1729 4.81034 37.9932 4.85028 37.8824 4.92927C37.7714 5.00848 37.7128 5.18138 37.7062 5.44797L37.6544 7.6187C37.6511 7.77646 37.6663 7.90109 37.7003 7.99303C37.7347 8.08453 37.7935 8.14816 37.8776 8.18327C37.9616 8.21859 38.0792 8.2379 38.2306 8.24185C38.5699 8.24975 38.8167 8.18612 38.9716 8.05008C39.1263 7.91448 39.2066 7.71349 39.2132 7.44689C39.2196 7.17437 39.1654 6.96395 39.051 6.81606C38.9363 6.66795 38.7978 6.5646 38.6357 6.50602C38.4733 6.44787 38.3226 6.41693 38.1832 6.41342C38.1347 6.41232 38.047 6.41167 37.9197 6.41167C37.7925 6.41189 37.6834 6.41693 37.5921 6.42659L37.6005 6.07222C37.7159 6.06323 37.8295 6.05665 37.9421 6.05314C38.054 6.05006 38.1587 6.0494 38.2554 6.0516C38.8672 6.06608 39.3405 6.1714 39.6751 6.36735C40.0099 6.56329 40.1718 6.88803 40.1611 7.34223C40.1552 7.59083 40.092 7.81332 39.9724 8.01014C39.8526 8.20762 39.6643 8.35902 39.4069 8.46522C39.15 8.5712 38.8156 8.61903 38.4038 8.60938C37.986 8.59951 37.6439 8.59271 37.3773 8.58941C37.1105 8.58612 36.8895 8.58415 36.7136 8.58305C36.538 8.58151 36.3774 8.58217 36.2319 8.58502Z" fill="#2B9740"/>
<path d="M43.1726 9.17792C43.1882 9.09476 43.2045 9.02366 43.2216 8.9653C43.2385 8.90671 43.2611 8.8523 43.2887 8.80205C43.4794 8.83738 43.6319 8.81214 43.7466 8.72547C43.8612 8.63902 43.9474 8.44088 44.0049 8.13128L44.3441 6.30878C44.4016 5.99918 44.3922 5.78327 44.3163 5.66127C44.2403 5.53949 44.1074 5.4605 43.9167 5.42495C43.909 5.36834 43.9077 5.308 43.9134 5.24415C43.9191 5.18074 43.929 5.11009 43.9437 5.03263C44.0793 5.06423 44.2344 5.09934 44.4093 5.13774C44.5837 5.17657 44.7663 5.21322 44.957 5.24898C45.1476 5.28431 45.3328 5.31568 45.5125 5.34289C45.6922 5.37032 45.8482 5.39292 45.9803 5.41135C45.9661 5.48881 45.9498 5.55814 45.9325 5.61958C45.9147 5.6808 45.8923 5.73697 45.8643 5.78744C45.6736 5.75167 45.5211 5.77734 45.4063 5.86401C45.2916 5.95025 45.2056 6.1486 45.1479 6.4582L44.8093 8.28071C44.7518 8.59053 44.7608 8.80622 44.8367 8.92822C44.9126 9.05043 45.0458 9.12855 45.2365 9.16431C45.2444 9.22114 45.2457 9.28017 45.2405 9.34073C45.2354 9.40151 45.2253 9.47326 45.2097 9.55685C45.0807 9.52043 44.9273 9.48423 44.7492 9.4478C44.571 9.41182 44.3867 9.37584 44.196 9.34051C44.0053 9.30518 43.8219 9.27248 43.6459 9.24286C43.4697 9.21324 43.312 9.19152 43.1726 9.17792ZM42.1368 7.04449L42.2149 6.62453L44.2517 7.00325L44.1822 7.37867C44.0091 7.34642 43.796 7.30824 43.5426 7.26413C43.2887 7.22025 43.0346 7.17768 42.7805 7.13643C42.526 7.0954 42.3118 7.06446 42.1368 7.04449ZM40.4121 8.66491C40.4277 8.58131 40.4439 8.51066 40.461 8.45186C40.4779 8.39371 40.5005 8.33929 40.5282 8.28904C40.7189 8.32437 40.8714 8.2987 40.9861 8.21247C41.1009 8.1258 41.1869 7.92766 41.2444 7.61784L41.5834 5.79534C41.6409 5.48574 41.6316 5.26983 41.5562 5.14783C41.4798 5.02605 41.3466 4.94728 41.1562 4.91195C41.1483 4.8549 41.1469 4.79456 41.1529 4.73115C41.1584 4.6673 41.1685 4.59687 41.1832 4.51919C41.3185 4.55079 41.4739 4.58567 41.6488 4.62473C41.823 4.66313 42.0058 4.70021 42.1964 4.73554C42.3871 4.77086 42.5723 4.80246 42.752 4.82945C42.9317 4.85688 43.0877 4.87969 43.2198 4.89813C43.2055 4.97536 43.1893 5.04492 43.172 5.10658C43.1542 5.16779 43.1316 5.22353 43.1035 5.274C42.9128 5.23845 42.7606 5.26434 42.6458 5.35057C42.5313 5.43724 42.445 5.63516 42.3873 5.94476L42.0488 7.76748C41.9913 8.0773 42.0003 8.29321 42.076 8.41499C42.1521 8.53699 42.2851 8.61554 42.4758 8.65087C42.4839 8.7077 42.4852 8.76672 42.4799 8.82728C42.4747 8.88806 42.4648 8.96003 42.4492 9.04341C42.3202 9.00699 42.1668 8.97101 41.9886 8.9348C41.8105 8.89838 41.6262 8.86283 41.4357 8.82728C41.2448 8.79174 41.0614 8.75904 40.8852 8.72964C40.7092 8.6998 40.5514 8.6783 40.4121 8.66491Z" fill="#2B9740"/>
<path d="M47.1871 9.79428C47.3122 9.8397 47.455 9.84518 47.6163 9.8103C47.7771 9.77563 47.9338 9.68611 48.0867 9.54151C48.239 9.39735 48.3672 9.18297 48.4707 8.89839L48.589 8.57408C48.4407 8.53897 48.2809 8.50848 48.1102 8.48149C47.9395 8.45472 47.7745 8.44792 47.615 8.46064C47.4555 8.47337 47.3131 8.51989 47.1871 8.59954C47.0614 8.67985 46.9642 8.81347 46.8955 9.00151C46.8189 9.21194 46.8141 9.38418 46.8813 9.51847C46.9486 9.65253 47.0504 9.74447 47.1871 9.79428ZM48.1706 10.704C48.1186 10.6527 48.0874 10.5833 48.0773 10.496C48.0674 10.4082 48.0911 10.2847 48.1495 10.1254C48.1681 10.0745 48.1932 10.0141 48.2248 9.94502C48.2561 9.87612 48.2912 9.81622 48.329 9.76553L48.3461 9.77168C48.2959 9.85659 48.2217 9.94063 48.1234 10.0242C48.0253 10.1076 47.9134 10.1717 47.7877 10.2162C47.6598 10.2663 47.5119 10.2915 47.3442 10.2915C47.1764 10.2915 46.9875 10.2533 46.777 10.1767C46.4181 10.046 46.1745 9.86537 46.0459 9.63454C45.9173 9.40393 45.9037 9.14918 46.0053 8.8703C46.0861 8.64825 46.2076 8.47841 46.37 8.36015C46.5322 8.24188 46.7167 8.1607 46.9229 8.11681C47.1292 8.07271 47.342 8.05493 47.5612 8.06393C47.7802 8.07293 47.99 8.09443 48.1905 8.12888C48.3909 8.16311 48.5662 8.19471 48.7167 8.22389C48.8016 7.99064 48.8639 7.80677 48.9032 7.67271C48.9423 7.53886 48.9633 7.42849 48.9651 7.3427C48.9677 7.25625 48.9539 7.1755 48.9232 7.0998C48.8861 6.98965 48.831 6.89706 48.7582 6.82223C48.6858 6.74741 48.5954 6.69014 48.4872 6.65065C48.2994 6.58241 48.1302 6.5868 47.9797 6.66425C47.8289 6.74149 47.7025 6.84856 47.6012 6.98548C47.4996 7.1224 47.4243 7.2501 47.3749 7.36749C47.3122 7.34467 47.2356 7.31176 47.1448 7.26897C47.0539 7.22618 46.9899 7.18516 46.9528 7.14566C47.016 7.00764 47.0768 6.84922 47.1353 6.67061C47.1941 6.49244 47.2319 6.33512 47.2492 6.19974C47.5261 6.16529 47.8068 6.1609 48.0907 6.18701C48.3742 6.21313 48.6245 6.26556 48.8407 6.34456C49.0511 6.42113 49.2209 6.5168 49.3499 6.63155C49.479 6.74631 49.5716 6.86875 49.6273 6.99865C49.7234 7.19481 49.7521 7.41642 49.714 7.66371C49.6756 7.91077 49.5867 8.22477 49.4478 8.60612L49.1057 9.54546C49.0474 9.70497 49.014 9.83619 49.0055 9.93953C48.9967 10.0424 49.0217 10.1291 49.0803 10.1989C49.1384 10.2682 49.2427 10.3369 49.3923 10.4045C49.3715 10.4613 49.3451 10.5243 49.3135 10.5934C49.2821 10.6623 49.2433 10.724 49.1979 10.7784C49.0533 10.7325 48.8854 10.702 48.6945 10.6871C48.5032 10.6722 48.3288 10.6777 48.1706 10.704Z" fill="#2B9740"/>
<path d="M53.0155 13.2062C52.8724 13.1147 52.7546 13.021 52.6613 12.9254C52.5679 12.8295 52.4678 12.7189 52.3618 12.593L52.7394 12.004C52.7726 12.1763 52.8263 12.3367 52.9005 12.4848C52.9742 12.6331 53.1004 12.7645 53.2792 12.8791C53.3865 12.9475 53.5162 13.0002 53.6691 13.0371C53.8216 13.0737 53.9912 13.0763 54.1769 13.0443C54.3631 13.0125 54.5551 12.9234 54.7533 12.7771C54.9514 12.6303 55.1487 12.4045 55.3451 12.0984C55.5184 11.8283 55.6305 11.5709 55.6825 11.3271C55.7345 11.0836 55.7299 10.8666 55.6683 10.6759C55.607 10.4856 55.4947 10.3378 55.3317 10.2331C55.1836 10.1385 55.0078 10.0924 54.8048 10.0951C54.6017 10.0982 54.3853 10.1774 54.1562 10.3327C53.9269 10.4878 53.6983 10.7441 53.4695 11.1009L53.7672 10.148C53.9379 10.0273 54.0753 9.93908 54.1797 9.88334C54.2837 9.82783 54.3614 9.78768 54.4132 9.76354C54.508 9.71637 54.6337 9.67994 54.7906 9.6547C54.9472 9.62881 55.1169 9.63123 55.2988 9.66195C55.4809 9.69201 55.656 9.76134 55.8243 9.86908C56.1249 10.0619 56.3436 10.2847 56.4801 10.5379C56.6164 10.7909 56.6653 11.0741 56.6265 11.3872C56.5874 11.7006 56.4487 12.0435 56.2102 12.4154C55.9682 12.7931 55.67 13.084 55.3159 13.2887C54.9613 13.4932 54.585 13.5922 54.1865 13.585C53.7883 13.5777 53.3979 13.4518 53.0155 13.2062ZM49.9684 13.8004C50.0145 13.7291 50.0566 13.6681 50.0963 13.6177C50.1356 13.5674 50.1764 13.527 50.2174 13.4961C50.3618 13.574 50.4845 13.6183 50.5854 13.6293C50.6865 13.64 50.7827 13.608 50.8739 13.5332C50.9648 13.4586 51.0642 13.337 51.1719 13.1689L53.3299 9.80303C53.4082 9.6806 53.4594 9.57286 53.4828 9.47983C53.5065 9.38701 53.4905 9.29398 53.435 9.20094C53.3797 9.10791 53.2698 9.005 53.1048 8.89178C53.1403 8.83583 53.1783 8.78778 53.218 8.74872C53.2575 8.70923 53.3029 8.67763 53.3549 8.65283C53.5193 8.74411 53.72 8.82947 53.9568 8.90955C54.1933 8.9892 54.3901 9.03594 54.5466 9.04999C54.5828 9.09475 54.6017 9.15201 54.6041 9.22157C54.6056 9.29156 54.5709 9.38241 54.499 9.49453C54.4237 9.61192 54.3362 9.71219 54.2363 9.79536C54.1356 9.87874 54.0022 9.9891 53.8348 10.1265L53.9252 10.3893L51.9585 13.4573C51.8181 13.6765 51.7341 13.8584 51.7062 14.0021C51.6788 14.1465 51.702 14.2731 51.7762 14.3819C51.8503 14.4903 51.9629 14.6007 52.115 14.7121C52.1038 14.7628 52.0836 14.8166 52.0544 14.8734C52.0254 14.9302 51.9881 14.9941 51.9423 15.0658C51.8688 15.0114 51.7806 14.9498 51.6779 14.88C51.5752 14.8102 51.4655 14.7369 51.3501 14.659C51.2342 14.5811 51.1153 14.503 50.9931 14.4249C50.8145 14.3104 50.6264 14.1912 50.4283 14.0681C50.2304 13.9446 50.0772 13.8555 49.9684 13.8004Z" fill="#2B9740"/>
<path d="M56.7466 15.3517C56.8458 15.4406 56.977 15.4985 57.1394 15.526C57.3017 15.553 57.4806 15.5279 57.6759 15.4503C57.8707 15.3726 58.0695 15.2212 58.2709 14.9952L58.5009 14.7376C58.3758 14.65 58.2389 14.5625 58.0901 14.4745C57.9416 14.3863 57.7906 14.3187 57.6377 14.2715C57.4847 14.2246 57.3353 14.2147 57.1887 14.2421C57.0424 14.2698 56.9026 14.3582 56.7696 14.5074C56.6202 14.6748 56.552 14.8328 56.5647 14.9822C56.5776 15.1317 56.6382 15.2548 56.7466 15.3517ZM57.3235 16.5614C57.2941 16.494 57.2908 16.4186 57.3138 16.3334C57.3368 16.2481 57.4051 16.1425 57.5177 16.0164C57.5541 15.9749 57.5999 15.929 57.6548 15.8764C57.7099 15.8237 57.7643 15.7809 57.818 15.748L57.8316 15.7603C57.7535 15.8202 57.6533 15.8711 57.5313 15.9126C57.4093 15.9541 57.2818 15.9714 57.1481 15.9666C57.0108 15.965 56.8642 15.9339 56.7084 15.8718C56.5524 15.8099 56.3909 15.7044 56.2239 15.5549C55.9394 15.3008 55.7798 15.043 55.7456 14.7808C55.7114 14.5193 55.7932 14.2775 55.9909 14.0561C56.1485 13.8799 56.324 13.7669 56.5186 13.7173C56.713 13.6675 56.9145 13.6605 57.1225 13.6958C57.33 13.7311 57.5343 13.7936 57.7347 13.8829C57.935 13.9725 58.1219 14.0701 58.2953 14.1763C58.4686 14.2823 58.6198 14.3766 58.749 14.4596C58.9145 14.2744 59.04 14.1267 59.126 14.0166C59.212 13.9064 59.2724 13.8119 59.3062 13.7329C59.3406 13.6537 59.3573 13.5733 59.3573 13.4919C59.3634 13.3759 59.3465 13.2692 59.3068 13.1729C59.2671 13.0764 59.2039 12.9899 59.1183 12.9133C58.9693 12.7801 58.8103 12.7216 58.6417 12.7376C58.473 12.7534 58.3161 12.8065 58.1711 12.8962C58.0258 12.9857 57.9087 13.0764 57.8198 13.167C57.77 13.1227 57.711 13.0639 57.6425 12.9906C57.574 12.9171 57.5297 12.8556 57.5097 12.8047C57.6195 12.7001 57.7347 12.5756 57.8553 12.4315C57.9758 12.2871 58.0691 12.1555 58.1355 12.0359C58.4052 12.1063 58.6672 12.2061 58.9213 12.3354C59.1756 12.4648 59.3884 12.6061 59.56 12.7593C59.727 12.9087 59.8494 13.0608 59.9271 13.2148C60.0046 13.3693 60.0449 13.5174 60.0489 13.6587C60.0651 13.8764 60.0098 14.0929 59.8828 14.3084C59.7555 14.5237 59.5569 14.7826 59.2864 15.0856L58.6209 15.8312C58.5079 15.9582 58.428 16.0677 58.3819 16.1601C58.3359 16.2529 58.3269 16.3424 58.3552 16.4282C58.3837 16.5149 58.455 16.6169 58.5693 16.7354C58.5285 16.7804 58.4811 16.8291 58.4261 16.8818C58.3714 16.9338 58.3124 16.9768 58.2499 17.0106C58.1331 16.9145 57.9885 16.8243 57.8161 16.7389C57.6443 16.6542 57.4799 16.5954 57.3235 16.5614Z" fill="#2B9740"/>
<path d="M63.7431 16.3672C63.5456 16.1217 63.4072 15.8674 63.328 15.6045C63.2487 15.3416 63.2409 15.0897 63.3034 14.8488C63.3661 14.6079 63.5131 14.3946 63.7444 14.2085C63.8581 14.2726 63.9674 14.3499 64.0714 14.4411C64.1758 14.5322 64.2706 14.6404 64.3564 14.7661C64.0891 15.043 63.932 15.2995 63.8848 15.5356C63.8379 15.7719 63.9015 15.9984 64.076 16.216C64.2469 16.4282 64.4479 16.5309 64.6792 16.5239C64.9102 16.5162 65.1825 16.4028 65.4952 16.1829C65.5996 16.2924 65.6913 16.4074 65.771 16.5254C65.8509 16.6446 65.9083 16.7597 65.9437 16.8706C65.7076 17.0606 65.4581 17.1584 65.1946 17.1646C64.931 17.1703 64.6745 17.1029 64.4248 16.9614C64.1751 16.8201 63.948 16.6217 63.7431 16.3672ZM60.303 19.7744C60.3693 19.7217 60.4274 19.678 60.4788 19.6447C60.5293 19.6113 60.5821 19.585 60.6359 19.565C60.7498 19.7066 60.8757 19.7785 61.0135 19.7805C61.1509 19.7827 61.3424 19.6851 61.5882 19.4874L63.0328 18.326C63.2782 18.1285 63.4144 17.9619 63.4423 17.8274C63.4695 17.6923 63.4267 17.5543 63.3128 17.4127C63.3438 17.3643 63.3822 17.3177 63.4278 17.2734C63.4737 17.2284 63.5276 17.1819 63.5889 17.1321C63.6674 17.2403 63.7576 17.3614 63.8592 17.4981C63.9608 17.6339 64.0703 17.7748 64.1881 17.9211C64.3057 18.0673 64.4202 18.2053 64.5315 18.3336C64.6421 18.4618 64.7419 18.5763 64.8303 18.6762C64.7689 18.7253 64.7114 18.7677 64.6579 18.803C64.6045 18.8377 64.5512 18.8653 64.497 18.8855C64.3834 18.744 64.2576 18.672 64.1201 18.6698C63.9823 18.6678 63.7907 18.7657 63.5452 18.9632L62.1005 20.1246C61.855 20.3223 61.7183 20.4886 61.6911 20.6231C61.6632 20.7582 61.7067 20.8963 61.8203 21.0384C61.7892 21.0861 61.7521 21.1319 61.7086 21.1743C61.665 21.2173 61.6103 21.2651 61.5443 21.3184C61.4703 21.2067 61.381 21.0841 61.2775 20.9502C61.1735 20.8157 61.0624 20.6757 60.9451 20.5294C60.8272 20.3833 60.714 20.2446 60.6052 20.114C60.4968 19.9837 60.3958 19.8707 60.303 19.7744ZM59.8273 18.023L60.2523 17.6811L63.5276 18.1728L63.1096 18.509L59.8273 18.023ZM58.4865 17.5154C58.5527 17.4628 58.6109 17.4191 58.6622 17.3858C58.7127 17.3524 58.7653 17.3263 58.8195 17.3061C58.9332 17.4476 59.0591 17.5196 59.1967 17.5218C59.3343 17.5238 59.5261 17.4261 59.7714 17.2284L61.216 16.067C61.4616 15.8693 61.5978 15.7032 61.6257 15.5685C61.6531 15.4338 61.6099 15.2953 61.4962 15.1536C61.527 15.1053 61.5656 15.0588 61.6112 15.0143C61.6571 14.9697 61.7108 14.9225 61.7723 14.8734C61.8508 14.9809 61.941 15.1029 62.0426 15.2387C62.1442 15.3748 62.2541 15.5159 62.3717 15.6624C62.4891 15.8088 62.6037 15.9457 62.7147 16.0747C62.8257 16.2029 62.9251 16.3174 63.0138 16.4172C62.9521 16.4664 62.8948 16.5087 62.8415 16.5441C62.788 16.5787 62.7344 16.6064 62.6804 16.6266C62.5668 16.485 62.4408 16.4131 62.3033 16.4118C62.1657 16.4089 61.9739 16.5072 61.7284 16.7042L60.2839 17.8656C60.0384 18.0631 59.9019 18.2296 59.8745 18.3642C59.8466 18.4993 59.8901 18.6373 60.0037 18.7795C59.9726 18.8273 59.9355 18.873 59.8921 18.9153C59.8486 18.9583 59.7942 19.0062 59.7279 19.0595C59.6535 18.948 59.5645 18.8252 59.4609 18.6913C59.3569 18.5568 59.2461 18.4168 59.1285 18.2705C59.0106 18.1243 58.8976 17.9854 58.7888 17.8551C58.6802 17.7248 58.5793 17.6118 58.4865 17.5154Z" fill="#2B9740"/>
<path d="M63.1239 23.3645C63.3003 23.6823 63.5625 23.8451 63.9098 23.8527C64.2576 23.8604 64.6403 23.7479 65.0587 23.5157C65.3865 23.3334 65.6439 23.126 65.8309 22.8937C66.0169 22.6622 66.1293 22.4278 66.1681 22.1922C66.2063 21.9556 66.1712 21.7393 66.0624 21.5438C65.8914 21.2368 65.6398 21.0766 65.3069 21.0641C64.974 21.0516 64.6094 21.1554 64.2122 21.3768C63.8574 21.5736 63.5783 21.7858 63.3756 22.0133C63.1726 22.2407 63.0508 22.4695 63.0091 22.7003C62.9679 22.9312 63.006 23.1532 63.1239 23.3645ZM62.7072 23.5131C62.5071 23.1532 62.4101 22.7947 62.416 22.4375C62.4217 22.0811 62.5255 21.7498 62.7263 21.4439C62.9268 21.1383 63.218 20.8789 63.5996 20.6674C63.9592 20.4671 64.325 20.3637 64.6965 20.3589C65.0677 20.3534 65.4102 20.4401 65.7247 20.6189C66.0389 20.7978 66.2932 21.0613 66.4878 21.4108C66.6965 21.7871 66.7959 22.1525 66.7858 22.5084C66.7757 22.864 66.6686 23.1919 66.4648 23.4929C66.2614 23.7931 65.9711 24.0476 65.5952 24.2569C65.2356 24.4572 64.8705 24.5615 64.5005 24.5696C64.131 24.5773 63.7896 24.4932 63.4767 24.3173C63.1636 24.1411 62.9075 23.8727 62.7072 23.5131Z" fill="#2B9740"/>
<path d="M66.2236 26.3543L66.6267 26.2135L67.3109 28.1694L66.9501 28.2951C66.8922 28.1292 66.8194 27.9254 66.7318 27.6836C66.6438 27.4414 66.5541 27.1996 66.4637 26.9588C66.3728 26.7177 66.2932 26.5165 66.2236 26.3543ZM64.8872 28.3138C64.9672 28.2861 65.0368 28.2644 65.096 28.2506C65.1553 28.2361 65.2137 28.2284 65.2709 28.2278C65.335 28.4108 65.4331 28.5308 65.5652 28.5869C65.6968 28.6438 65.9118 28.6203 66.2094 28.5161L67.959 27.9039C68.2563 27.7999 68.4391 27.6849 68.5074 27.5587C68.5754 27.4319 68.5774 27.2772 68.5133 27.094C68.5587 27.0587 68.6109 27.0282 68.6686 27.0012C68.727 26.9749 68.7928 26.9485 68.8672 26.9222C68.9076 27.0561 68.9543 27.2079 69.0076 27.3784C69.0607 27.5497 69.1193 27.7264 69.1834 27.9096C69.2472 28.0919 69.3122 28.2688 69.378 28.438C69.4434 28.6076 69.5013 28.7539 69.5509 28.8781C69.4768 28.9038 69.4083 28.9246 69.3464 28.9398C69.2843 28.9551 69.2246 28.9635 69.1672 28.9641C69.1035 28.7809 69.0052 28.6611 68.8731 28.6049C68.741 28.5481 68.5262 28.5722 68.2289 28.6763L66.479 29.288C66.1815 29.392 65.9987 29.507 65.9309 29.6338C65.8627 29.76 65.8609 29.9147 65.9246 30.0977C65.8792 30.1332 65.8291 30.1637 65.7738 30.1892C65.7185 30.215 65.6507 30.242 65.5711 30.2697C65.5386 30.14 65.4934 29.9888 65.4366 29.8161C65.3793 29.6437 65.3188 29.4655 65.2549 29.2832C65.1908 29.1 65.1279 28.9246 65.066 28.7568C65.0043 28.5889 64.9446 28.4413 64.8872 28.3138ZM63.9603 25.6632C64.0404 25.6353 64.1102 25.6138 64.1694 25.6C64.2285 25.5855 64.2868 25.5778 64.3441 25.5769C64.4084 25.7602 64.5062 25.88 64.6386 25.9363C64.7704 25.993 64.9852 25.9695 65.2828 25.8655L67.0322 25.2533C67.33 25.1493 67.5125 25.0341 67.5807 24.9079C67.6488 24.7811 67.651 24.6264 67.5867 24.4434C67.6321 24.4087 67.6841 24.3776 67.742 24.3506C67.8002 24.324 67.866 24.2977 67.9406 24.2714C67.9808 24.4052 68.0275 24.5571 68.0808 24.7284C68.1341 24.8989 68.1925 25.0758 68.2568 25.2588C68.3204 25.4418 68.3854 25.618 68.4512 25.7871C68.5168 25.957 68.5745 26.104 68.6243 26.2275C68.5499 26.2538 68.4819 26.2738 68.4196 26.2892C68.3577 26.3043 68.298 26.3127 68.2405 26.3133C68.1767 26.1303 68.0786 26.0112 67.9465 25.9543C67.8144 25.8982 67.5994 25.9216 67.3025 26.0257L65.5524 26.6372C65.2549 26.7412 65.0723 26.8564 65.0043 26.9832C64.9359 27.1094 64.9343 27.2641 64.9982 27.4471C64.9528 27.4824 64.9023 27.5129 64.8472 27.5386C64.7917 27.5642 64.7241 27.5912 64.6443 27.6191C64.6118 27.4894 64.5668 27.3382 64.51 27.1655C64.4527 26.9929 64.3921 26.8153 64.3283 26.6323C64.2642 26.4494 64.2015 26.2738 64.1394 26.1062C64.0775 25.9383 64.018 25.7907 63.9603 25.6632Z" fill="#2B9740"/>
<path d="M67.7594 31.7146L68.1815 31.6487L68.4995 33.6961L68.1223 33.7545C68.0953 33.5812 68.0606 33.3677 68.0178 33.1131C67.9753 32.8593 67.9316 32.6056 67.8862 32.3524C67.8405 32.0988 67.7984 31.8859 67.7594 31.7146ZM66.0896 33.3988C66.1736 33.3857 66.2456 33.3773 66.3068 33.3745C66.3673 33.371 66.4262 33.3745 66.4828 33.3835C66.5126 33.5757 66.5872 33.7108 66.7068 33.7905C66.8264 33.8695 67.0421 33.8855 67.3534 33.837L69.1851 33.5529C69.4965 33.5048 69.6968 33.4245 69.787 33.3121C69.8768 33.2005 69.907 33.0486 69.8772 32.8573C69.9281 32.831 69.9845 32.8095 70.0466 32.7943C70.1087 32.7783 70.1785 32.7643 70.2566 32.752C70.2717 32.8904 70.2901 33.0486 70.3116 33.2261C70.3329 33.4036 70.3582 33.5882 70.388 33.7802C70.4181 33.9715 70.4497 34.1565 70.4834 34.3355C70.5175 34.5137 70.5477 34.6684 70.5741 34.7994C70.4962 34.8117 70.4255 34.8193 70.3619 34.8229C70.298 34.8272 70.2377 34.8244 70.1809 34.8145C70.1512 34.6225 70.0764 34.4874 69.9568 34.4077C69.8373 34.3285 69.6216 34.3125 69.3106 34.3612L67.4787 34.6456C67.1674 34.6938 66.9668 34.7737 66.8771 34.886C66.7869 34.9977 66.757 35.1494 66.7869 35.3416C66.7355 35.3679 66.6805 35.3887 66.6219 35.4041C66.5626 35.4192 66.4913 35.4331 66.4077 35.4462C66.3992 35.3126 66.3825 35.1557 66.3577 34.9754C66.3327 34.7959 66.3055 34.61 66.2756 34.418C66.246 34.2267 66.2157 34.0428 66.1854 33.8668C66.1552 33.6906 66.1234 33.5346 66.0896 33.3988ZM65.6591 30.624C65.7429 30.6115 65.8151 30.6032 65.8763 30.5997C65.9368 30.5962 65.9954 30.5997 66.0523 30.6093C66.0821 30.8009 66.1567 30.936 66.2763 31.0157C66.3959 31.0953 66.6113 31.1107 66.9227 31.0629L68.7546 30.7778C69.0656 30.73 69.2663 30.6497 69.3561 30.538C69.4458 30.4257 69.4761 30.2738 69.4465 30.0825C69.4976 30.0562 69.554 30.0347 69.6161 30.0195C69.6777 30.0035 69.7477 29.9895 69.8256 29.9778C69.841 30.1156 69.8594 30.2738 69.8811 30.4513C69.902 30.6289 69.9277 30.814 69.9575 31.0054C69.9873 31.1967 70.0189 31.3817 70.0529 31.5607C70.087 31.7396 70.117 31.8943 70.1433 32.0246C70.0652 32.0371 69.9946 32.0446 69.931 32.0489C69.8671 32.0522 69.8072 32.0494 69.7504 32.0399C69.7203 31.8484 69.6459 31.7126 69.5261 31.6334C69.4065 31.5537 69.1911 31.5377 68.8797 31.5864L67.0478 31.8708C66.7366 31.9193 66.5361 31.9989 66.4463 32.1113C66.3562 32.2236 66.3263 32.3746 66.3559 32.5668C66.305 32.5931 66.25 32.614 66.1909 32.6291C66.1321 32.6445 66.0604 32.6583 65.9772 32.6714C65.9684 32.5376 65.9515 32.3809 65.9268 32.2012C65.9022 32.0211 65.8748 31.8352 65.8449 31.6439C65.8151 31.4519 65.7854 31.268 65.7547 31.0921C65.7242 30.9159 65.6924 30.7599 65.6591 30.624Z" fill="#2B9740"/>
<path d="M66.8448 37.4065C66.8426 37.5395 66.8843 37.676 66.9699 37.8175C67.0557 37.9575 67.1915 38.0769 67.3776 38.1741C67.5639 38.2702 67.8085 38.3215 68.1111 38.3266L68.4565 38.3318C68.4409 38.1802 68.4176 38.0192 68.3871 37.8493C68.3566 37.6788 68.3092 37.5209 68.2452 37.3745C68.1807 37.2281 68.09 37.1081 67.9735 37.0153C67.8568 36.9223 67.6986 36.8747 67.4985 36.8718C67.2747 36.8674 67.1101 36.9196 67.0052 37.0272C66.9008 37.1345 66.847 37.2606 66.8448 37.4065ZM66.3073 38.6335C66.3382 38.5671 66.3937 38.515 66.4731 38.4769C66.5523 38.4389 66.677 38.4216 66.8466 38.4242C66.901 38.4249 66.9659 38.429 67.0416 38.4367C67.1173 38.4435 67.1852 38.4569 67.2455 38.4762L67.2453 38.4944C67.1483 38.4742 67.0449 38.4317 66.9339 38.3667C66.8227 38.3009 66.7257 38.2162 66.6427 38.1113C66.5532 38.0075 66.481 37.8757 66.4262 37.7177C66.3711 37.559 66.3454 37.3675 66.3494 37.1435C66.3553 36.7623 66.4464 36.4725 66.6221 36.2754C66.7983 36.0786 67.0344 35.9821 67.3311 35.9871C67.5676 35.9911 67.7682 36.0503 67.9327 36.1653C68.0977 36.2798 68.2344 36.4275 68.3439 36.6083C68.4527 36.7887 68.539 36.9842 68.6024 37.1935C68.6656 37.4037 68.7136 37.6088 68.7468 37.8098C68.7799 38.0102 68.8073 38.1864 68.8293 38.3384C69.0774 38.3424 69.2712 38.3408 69.4109 38.334C69.5503 38.3272 69.6613 38.3105 69.7434 38.2847C69.8257 38.2583 69.8974 38.2191 69.9591 38.1655C70.0508 38.0942 70.1203 38.0124 70.1673 37.9187C70.214 37.8259 70.2386 37.7218 70.2404 37.6069C70.2439 37.407 70.1842 37.2483 70.062 37.1312C69.9395 37.0138 69.7971 36.9302 69.6345 36.8786C69.4715 36.8275 69.3267 36.7983 69.1994 36.79C69.2007 36.7233 69.2067 36.6401 69.217 36.5403C69.2277 36.4404 69.2459 36.3663 69.2707 36.3187C69.4219 36.3331 69.5915 36.3386 69.7794 36.336C69.9672 36.3331 70.1282 36.3171 70.2621 36.2895C70.385 36.5396 70.4806 36.8034 70.5491 37.0798C70.6173 37.3565 70.6496 37.6102 70.6458 37.8403C70.6421 38.0644 70.6072 38.2566 70.541 38.4159C70.4749 38.5754 70.3896 38.7022 70.2847 38.7979C70.1309 38.9524 69.931 39.0524 69.6848 39.0976C69.4386 39.1419 69.1128 39.1606 68.7068 39.1542L67.7072 39.1375C67.5378 39.1347 67.403 39.1465 67.3025 39.1722C67.2023 39.1981 67.1285 39.2492 67.082 39.3276C67.0351 39.4052 67.0041 39.5268 66.9896 39.6896C66.9289 39.6889 66.8608 39.6846 66.7851 39.6771C66.7094 39.6701 66.6388 39.6536 66.5725 39.6284C66.5688 39.4768 66.5429 39.3083 66.4942 39.1224C66.4457 38.9372 66.3834 38.7744 66.3073 38.6335Z" fill="#2B9740"/>
<path d="M66.0059 42.2015C66.0345 42.0776 66.081 41.97 66.1451 41.8792C66.2093 41.7877 66.2708 41.7212 66.3307 41.6786C66.4378 41.6725 66.5624 41.6914 66.7044 41.7364C66.8463 41.7813 66.9523 41.8272 67.0221 41.8744C66.9896 41.9354 66.9624 42.0005 66.9405 42.0697C66.9183 42.1392 66.9029 42.1919 66.895 42.2272C66.8413 42.4635 66.8957 42.6731 67.0589 42.8567C67.2222 43.0397 67.4741 43.2091 67.8144 43.3644C68.1547 43.5205 68.5626 43.6736 69.0374 43.8252C69.1823 43.8711 69.2926 43.8981 69.3685 43.906C69.4445 43.9143 69.5046 43.8823 69.5485 43.8123C69.5924 43.7416 69.6415 43.6152 69.695 43.4351C69.7523 43.4296 69.8155 43.4316 69.8846 43.4412C69.9542 43.4509 70.0183 43.4628 70.0771 43.4761C70.0362 43.6278 69.9823 43.8441 69.9153 44.1243C69.8482 44.4036 69.7596 44.7856 69.649 45.2703C69.5759 45.5891 69.5164 45.8568 69.4701 46.0734C69.4241 46.2889 69.3852 46.4712 69.3547 46.6198C69.324 46.7681 69.2999 46.8927 69.283 46.9948C69.2062 46.9774 69.1373 46.9588 69.0767 46.9386C69.0159 46.9184 68.9611 46.8936 68.9122 46.8638C68.9525 46.6862 68.9308 46.5434 68.8472 46.4337C68.7632 46.3249 68.5677 46.2349 68.2609 46.1649L66.4536 45.7524C66.1466 45.6822 65.9313 45.678 65.8085 45.7405C65.6854 45.8022 65.604 45.922 65.5634 46.0991C65.5061 46.1043 65.4473 46.1037 65.387 46.0962C65.3266 46.0885 65.2549 46.0754 65.1724 46.0559C65.2141 45.929 65.2553 45.7827 65.2957 45.6183C65.3367 45.4533 65.3775 45.2793 65.4196 45.097C65.4611 44.9131 65.4997 44.7391 65.5342 44.573C65.5693 44.4071 65.5956 44.2573 65.6132 44.125C65.6961 44.1438 65.7663 44.1629 65.824 44.1824C65.8817 44.2018 65.9351 44.2263 65.9842 44.256C65.9436 44.4335 65.9656 44.5763 66.0492 44.6858C66.1332 44.7946 66.3285 44.885 66.6359 44.955L68.6289 45.4103C68.7882 45.4465 68.9128 45.4575 69.0032 45.4443C69.0934 45.4305 69.1614 45.384 69.2077 45.3043C69.2538 45.2251 69.2959 45.1027 69.3334 44.9377C69.3712 44.7718 69.3857 44.6476 69.3767 44.5653C69.3675 44.4822 69.3242 44.4194 69.2468 44.3766C69.1695 44.3343 69.0535 44.2858 68.8981 44.2318C68.4437 44.0721 68.0279 43.9198 67.6509 43.7748C67.274 43.6293 66.9541 43.4788 66.6914 43.3228C66.429 43.1661 66.2363 42.996 66.1137 42.813C65.9906 42.6294 65.9548 42.4256 66.0059 42.2015Z" fill="#2B9740"/>
<path d="M69.5979 49.2537C69.6501 49.1115 69.742 49.0095 69.8744 48.9487C70.0064 48.8877 70.141 48.882 70.2772 48.932C70.4306 48.9882 70.5372 49.0852 70.596 49.2232C70.6555 49.3612 70.661 49.4957 70.6129 49.626C70.5567 49.7799 70.4626 49.8861 70.3316 49.9442C70.2006 50.0026 70.0584 50.0032 69.9048 49.9471C69.7739 49.8992 69.6771 49.8068 69.6141 49.671C69.5509 49.5352 69.5457 49.3959 69.5979 49.2537ZM64.9721 46.4818C65.0289 46.5026 65.0888 46.5274 65.1524 46.5572C65.2158 46.5871 65.2727 46.6211 65.3231 46.6586C65.2395 46.8859 65.2356 47.0608 65.3104 47.1813C65.3852 47.3026 65.5649 47.4156 65.8495 47.5196L67.5384 48.1395C67.6747 48.1902 67.7918 48.2178 67.8893 48.2246C67.9871 48.2316 68.0751 48.1976 68.1541 48.1235C68.2329 48.0493 68.3081 47.9154 68.3788 47.7219C68.4411 47.745 68.4964 47.7713 68.5431 47.8018C68.5903 47.8316 68.6311 47.8698 68.666 47.9148C68.6351 48.0001 68.6048 48.1263 68.576 48.2928C68.5471 48.4598 68.528 48.6255 68.5192 48.7898C68.5104 48.9548 68.5166 49.0797 68.537 49.1642C68.501 49.2094 68.4505 49.2405 68.3858 49.2592C68.3213 49.2772 68.2346 49.2662 68.1267 49.2267L65.5676 48.2871C65.2832 48.1831 65.0743 48.1498 64.9409 48.188C64.8075 48.2261 64.7075 48.3363 64.6407 48.5186C64.5776 48.5147 64.5078 48.5022 64.4321 48.4804C64.3559 48.4592 64.2976 48.4412 64.2583 48.4265C64.2996 48.3317 64.3415 48.2312 64.3838 48.1241C64.4264 48.0168 64.4694 47.9086 64.5128 47.7991C64.5563 47.6888 64.598 47.58 64.6375 47.4718C64.6774 47.3636 64.7171 47.2506 64.757 47.1334C64.797 47.0154 64.8354 46.9026 64.872 46.7931C64.9089 46.6843 64.9422 46.5801 64.9721 46.4818Z" fill="#2B9740"/>
<path d="M64.1352 48.8787C64.1885 48.9063 64.2451 48.9395 64.3044 48.977C64.3632 49.0145 64.4152 49.0553 64.461 49.0992C64.3496 49.314 64.3232 49.4867 64.382 49.6164C64.4411 49.7452 64.605 49.8803 64.8738 50.0199L66.4707 50.8484C66.5999 50.9156 66.7123 50.9586 66.8084 50.9772C66.9041 50.9968 66.9958 50.9739 67.0838 50.9107C67.1713 50.8469 67.2626 50.7236 67.3576 50.5406C67.4164 50.5711 67.4675 50.6044 67.5103 50.6404C67.5529 50.6764 67.5891 50.7185 67.6183 50.7679C67.5764 50.8491 67.5305 50.9698 67.4805 51.1319C67.4307 51.2936 67.3912 51.4558 67.3616 51.6179C67.3317 51.7794 67.3218 51.9045 67.3315 51.9909C67.2902 52.0313 67.2365 52.0561 67.17 52.066C67.1033 52.0756 67.0188 52.0541 66.917 52.0015L64.497 50.7457C64.228 50.6064 64.0253 50.5467 63.8879 50.5676C63.751 50.5891 63.6376 50.6854 63.5485 50.8574C63.4862 50.8458 63.4188 50.8241 63.3459 50.7936C63.2735 50.7624 63.218 50.7374 63.1807 50.7181C63.2643 50.5834 63.3475 50.4392 63.4311 50.2847C63.5149 50.13 63.5972 49.9747 63.6779 49.8187C63.7308 49.7169 63.7846 49.61 63.839 49.4986C63.8938 49.3869 63.9463 49.2787 63.9965 49.1753C64.0468 49.0722 64.0928 48.9728 64.1352 48.8787ZM62.5966 51.7248C62.849 51.6991 63.1531 51.6519 63.5092 51.5841C63.8651 51.5168 64.2267 51.4378 64.5938 51.3485C64.9609 51.2594 65.2902 51.164 65.5816 51.0626L65.4568 50.9878L65.7683 52.163C65.8375 52.4375 65.9039 52.6413 65.9685 52.7738C66.033 52.9055 66.0918 52.9858 66.1455 53.0137C66.1883 53.0358 66.2315 53.0323 66.2737 53.0033C66.3162 52.9742 66.3571 52.9222 66.3963 52.8467C66.4582 52.8583 66.5181 52.8743 66.576 52.8943C66.634 52.9138 66.6925 52.9397 66.7518 52.97C66.6853 53.0859 66.6247 53.1927 66.5703 53.2904C66.5159 53.3887 66.4665 53.4804 66.4218 53.567C66.3772 53.6528 66.3369 53.7307 66.3004 53.8005C66.2528 53.8922 66.1958 54.0059 66.1289 54.1417C66.0615 54.2769 65.993 54.4192 65.9233 54.5674C65.8691 54.5393 65.8135 54.505 65.7563 54.4649C65.6984 54.4247 65.6512 54.3817 65.6137 54.3352C65.667 54.2326 65.703 54.1237 65.722 54.0074C65.7416 53.8907 65.7451 53.7599 65.7321 53.6136C65.7194 53.4666 65.6861 53.2939 65.6323 53.0955L65.2861 51.79L65.5527 51.9078C65.2615 51.9953 64.9528 52.0805 64.626 52.1636C64.2998 52.2468 63.8919 52.3389 63.4026 52.4403C63.1882 52.486 63.0254 52.529 62.9152 52.5713C62.8046 52.613 62.7186 52.667 62.6565 52.7337C62.5946 52.8008 62.529 52.8943 62.4593 53.015C62.3842 52.9764 62.3197 52.9397 62.266 52.9048C62.212 52.8702 62.1681 52.8335 62.1334 52.7953C62.2003 52.6663 62.2607 52.5437 62.3136 52.4278C62.3669 52.312 62.4174 52.1985 62.4652 52.0868C62.513 51.9751 62.5567 51.8545 62.5966 51.7248Z" fill="#2B9740"/>
<path d="M61.3683 54.5708C61.2891 54.6777 61.2439 54.8138 61.2323 54.9782C61.22 55.1425 61.2619 55.3176 61.3576 55.5049C61.4528 55.6921 61.6229 55.8751 61.8669 56.0548L62.1449 56.2593C62.2201 56.1268 62.2943 55.982 62.368 55.8259C62.4419 55.6692 62.4948 55.5132 62.5277 55.3567C62.5602 55.1997 62.5558 55.0501 62.5144 54.9066C62.4733 54.7637 62.3724 54.6326 62.2111 54.514C62.0305 54.3811 61.8664 54.3284 61.7192 54.3548C61.5713 54.3817 61.4546 54.4539 61.3683 54.5708ZM60.2183 55.2588C60.2824 55.2228 60.3577 55.2125 60.4446 55.2276C60.5315 55.2429 60.6431 55.3002 60.7796 55.401C60.8233 55.4336 60.874 55.4744 60.9315 55.5245C60.9889 55.5734 61.0366 55.6243 61.0747 55.6748L61.064 55.6895C60.9966 55.6173 60.9367 55.5223 60.8841 55.4045C60.8316 55.2873 60.802 55.1616 60.7945 55.0286C60.7825 54.8912 60.7998 54.7423 60.847 54.5814C60.8942 54.4206 60.9839 54.2499 61.1167 54.0697C61.3429 53.7618 61.5851 53.5795 61.8427 53.5205C62.1003 53.4615 62.3485 53.5205 62.5874 53.6967C62.7777 53.8366 62.9065 54.001 62.9745 54.1904C63.0423 54.3789 63.0682 54.5786 63.0524 54.7894C63.0366 54.9994 62.9936 55.2087 62.9236 55.417C62.8531 55.6243 62.7735 55.8196 62.6844 56.0022C62.5949 56.1844 62.515 56.3438 62.4448 56.4805C62.6447 56.6275 62.8036 56.7392 62.9212 56.814C63.039 56.8895 63.1388 56.9402 63.2207 56.9672C63.3027 56.9935 63.3841 57.0025 63.4653 56.995C63.5816 56.99 63.6858 56.9637 63.778 56.9145C63.8706 56.866 63.9507 56.7953 64.0191 56.703C64.1376 56.5415 64.1809 56.3778 64.149 56.2121C64.1174 56.0458 64.0499 55.8947 63.947 55.7585C63.844 55.6221 63.7431 55.5139 63.6444 55.4343C63.6837 55.3803 63.737 55.3158 63.8032 55.2408C63.8699 55.1659 63.9276 55.1159 63.9757 55.0909C64.0905 55.1907 64.2252 55.2934 64.3799 55.4C64.5348 55.5062 64.675 55.5868 64.8001 55.6414C64.7553 55.9175 64.6805 56.1871 64.5754 56.4526C64.4707 56.7175 64.3502 56.943 64.2136 57.128C64.0808 57.3084 63.941 57.4451 63.7947 57.5365C63.6481 57.6281 63.5048 57.682 63.3644 57.6994C63.1489 57.7363 62.9284 57.7015 62.702 57.5948C62.4757 57.4887 62.1991 57.3154 61.8721 57.0747L61.0671 56.4818C60.9306 56.3813 60.8138 56.312 60.7173 56.2753C60.6205 56.2379 60.5308 56.2372 60.4474 56.2738C60.3645 56.31 60.269 56.3903 60.1624 56.5151C60.1137 56.479 60.0608 56.4362 60.0031 56.3868C59.9456 56.337 59.8976 56.2822 59.8583 56.2231C59.9432 56.0978 60.0193 55.9453 60.0878 55.7663C60.1556 55.5868 60.1995 55.4174 60.2183 55.2588Z" fill="#2B9740"/>
<path d="M57.9116 57.8492C58.0316 57.7292 58.1483 57.6342 58.2618 57.5635C58.3752 57.4927 58.5044 57.4187 58.6503 57.3417L59.1454 57.8361C58.9696 57.8317 58.8015 57.8496 58.6409 57.8907C58.4805 57.9315 58.3254 58.0267 58.1755 58.1772C58.0853 58.2672 58.0061 58.3822 57.9379 58.5246C57.8692 58.6653 57.8312 58.8303 57.8227 59.0189C57.8141 59.2075 57.8602 59.4139 57.9611 59.6389C58.0621 59.8632 58.2409 60.1046 58.4983 60.3612C58.7254 60.5887 58.9527 60.753 59.1798 60.8555C59.4067 60.958 59.62 60.9997 59.819 60.9803C60.0182 60.9608 60.1865 60.8827 60.3234 60.7454C60.4474 60.6212 60.5297 60.4596 60.5703 60.2607C60.6109 60.061 60.5797 59.833 60.4766 59.5763C60.3737 59.3192 60.172 59.0409 59.8721 58.7416L60.7397 59.2351C60.8213 59.4279 60.8781 59.5811 60.9104 59.695C60.9426 59.8078 60.9652 59.8925 60.978 59.9486C61.0041 60.0513 61.0126 60.1814 61.0041 60.3403C60.9955 60.4986 60.9573 60.6635 60.8889 60.8356C60.8206 61.0066 60.7155 61.1627 60.5744 61.3042C60.3217 61.5573 60.0575 61.7238 59.7812 61.8034C59.505 61.8824 59.218 61.8699 58.92 61.7652C58.6223 61.6605 58.3168 61.4517 58.0042 61.1392C57.6864 60.8222 57.4661 60.4693 57.3413 60.0799C57.2169 59.6899 57.2006 59.3012 57.2926 58.9134C57.3843 58.5259 57.5905 58.1709 57.9116 57.8492ZM57.9798 54.7457C58.0404 54.8059 58.0904 54.86 58.1312 54.9092C58.1718 54.9586 58.2032 55.007 58.2245 55.0543C58.1174 55.1785 58.0478 55.2886 58.0158 55.3849C57.9837 55.4814 57.9945 55.5824 58.0483 55.6872C58.102 55.7921 58.1992 55.9155 58.3407 56.0561L61.17 58.8816C61.2729 58.984 61.3672 59.0569 61.4528 59.0999C61.5388 59.1423 61.6329 59.1464 61.7358 59.1124C61.8383 59.0778 61.9625 58.9924 62.1082 58.855C62.1554 58.9023 62.194 58.9494 62.2238 58.9965C62.2541 59.0438 62.2754 59.0951 62.2883 59.1506C62.1644 59.2922 62.038 59.4701 61.9096 59.6845C61.7813 59.8987 61.6935 60.0803 61.6468 60.2308C61.595 60.2565 61.5353 60.2628 61.4668 60.2503C61.3979 60.237 61.3165 60.1836 61.2224 60.0893C61.1234 59.9908 61.0444 59.8842 60.9845 59.7685C60.9244 59.6524 60.8448 59.4986 60.7465 59.3057L60.47 59.3386L57.8916 56.7633C57.7073 56.5794 57.5478 56.4583 57.4126 56.4009C57.2774 56.3431 57.1493 56.3392 57.0273 56.3881C56.9053 56.4375 56.7734 56.5248 56.6321 56.649C56.5849 56.6275 56.5367 56.5964 56.4875 56.5559C56.4381 56.5151 56.3835 56.4653 56.3236 56.4048C56.3921 56.3446 56.4711 56.2718 56.561 56.1864C56.6512 56.1006 56.7464 56.0099 56.8469 55.9133C56.9474 55.8163 57.049 55.7171 57.1517 55.6138C57.3018 55.4639 57.458 55.3052 57.6204 55.1381C57.7834 54.9709 57.9034 54.8401 57.9798 54.7457Z" fill="#2B9740"/>
<path d="M56.0538 59.7621C56.1027 59.8314 56.1418 59.8925 56.1716 59.9458C56.2014 59.9984 56.2247 60.0527 56.2412 60.108C56.0823 60.2189 55.9937 60.3458 55.9752 60.4889C55.9568 60.6308 56.038 60.8312 56.2186 61.0892L57.283 62.6069C57.4633 62.8649 57.6242 63.0091 57.7644 63.0411C57.9044 63.0714 58.054 63.0322 58.2127 62.9205C58.2592 62.9549 58.3026 62.9959 58.3443 63.0444C58.3856 63.0929 58.4288 63.15 58.4742 63.2145C58.3568 63.2891 58.223 63.3758 58.0731 63.4736C57.9235 63.5709 57.769 63.6753 57.6103 63.7869C57.4515 63.898 57.2994 64.0082 57.1542 64.1179C57.0089 64.2267 56.8834 64.3221 56.7776 64.4035C56.7327 64.339 56.694 64.2793 56.6625 64.2238C56.6311 64.1677 56.6069 64.1128 56.5907 64.0573C56.7496 63.9467 56.838 63.8194 56.8564 63.6768C56.8751 63.5346 56.7939 63.3343 56.6131 63.0765L55.5491 61.5588C55.3681 61.3007 55.2077 61.1559 55.0673 61.1245C54.927 61.0934 54.7778 61.1335 54.619 61.2452C54.5729 61.2105 54.5299 61.1702 54.49 61.1245C54.4503 61.078 54.4059 61.0207 54.3577 60.9512C54.4737 60.8847 54.6067 60.8008 54.7572 60.6988C54.908 60.597 55.0627 60.4901 55.2215 60.3785C55.3804 60.2676 55.5318 60.1595 55.6762 60.054C55.8207 59.9493 55.9467 59.8514 56.0538 59.7621ZM56.0035 62.1279L56.2486 62.4773L54.5518 63.6669L54.3329 63.3543C54.4768 63.2531 54.6532 63.1276 54.8621 62.978C55.0717 62.8274 55.2797 62.6756 55.487 62.5229C55.6941 62.3697 55.8666 62.2387 56.0035 62.1279ZM53.7545 61.3736C53.8032 61.4427 53.8427 61.5045 53.8725 61.5573C53.9024 61.6106 53.9252 61.6647 53.9419 61.7193C53.783 61.831 53.6943 61.9578 53.6759 62.1003C53.6575 62.2429 53.7387 62.4425 53.9193 62.7012L54.9837 64.219C55.1642 64.477 55.3249 64.6211 55.4651 64.6524C55.6053 64.6835 55.7551 64.6431 55.9133 64.5325C55.9599 64.5663 56.0035 64.6078 56.0452 64.6566C56.0862 64.705 56.1297 64.7618 56.1751 64.8264C56.0577 64.9012 55.9237 64.9872 55.7742 65.085C55.6244 65.1826 55.4701 65.2874 55.3113 65.3984C55.1526 65.5101 55.0001 65.6205 54.8551 65.7292C54.7098 65.8388 54.5843 65.9336 54.4783 66.0154C54.4334 65.9509 54.395 65.8908 54.3634 65.8352C54.3318 65.7797 54.3078 65.7242 54.2914 65.6693C54.4503 65.5576 54.5389 65.4309 54.5573 65.2889C54.576 65.1467 54.4946 64.9462 54.3138 64.6884L53.25 63.1706C53.0688 62.9128 52.9084 62.768 52.768 62.7366C52.628 62.7052 52.4785 62.7456 52.3197 62.8566C52.2736 62.8226 52.2306 62.7825 52.1909 62.7366C52.1514 62.6901 52.1071 62.6326 52.0583 62.5632C52.1744 62.4967 52.3076 62.412 52.4579 62.3102C52.6089 62.2082 52.7636 62.102 52.922 61.9906C53.0811 61.8798 53.2327 61.7713 53.3771 61.666C53.5217 61.5612 53.6474 61.4635 53.7545 61.3736Z" fill="#2B9740"/>
<path d="M50.7615 63.1485C50.8839 63.1102 50.9989 63.0699 51.1055 63.0256C51.2122 62.9821 51.3195 62.9362 51.4276 62.8884C51.5354 62.8406 51.6525 62.787 51.7785 62.7276C51.8053 62.7552 51.8327 62.7886 51.8619 62.8288C51.8904 62.8689 51.9163 62.9086 51.9382 62.9481C51.9606 62.9883 51.9753 63.0159 51.9834 63.0328C51.8103 63.1344 51.6949 63.2414 51.637 63.3523C51.579 63.4631 51.5525 63.5734 51.5567 63.6816C51.561 63.7904 51.565 63.8911 51.5685 63.9833C51.5768 64.1128 51.5606 64.253 51.5209 64.4028C51.481 64.5525 51.4035 64.6995 51.2879 64.845C51.1722 64.9898 51.0024 65.1155 50.7777 65.2221L50.0058 65.5877L49.9356 65.4392C50.2588 65.2867 50.4822 65.1357 50.6061 64.9865C50.7297 64.8373 50.7931 64.685 50.7968 64.5297C50.8003 64.3737 50.7845 64.21 50.7503 64.0388C50.7062 63.8183 50.6809 63.6505 50.6735 63.5366C50.6667 63.4232 50.6959 63.2932 50.7615 63.1485ZM49.6681 63.7066C49.6966 63.7661 49.7236 63.8306 49.7495 63.8993C49.7752 63.9673 49.7886 64.0248 49.7903 64.0706C49.6343 64.1509 49.5435 64.2391 49.5185 64.3355C49.4932 64.4305 49.5391 64.6017 49.6558 64.8485L50.9076 67.493L50.7852 67.3198C50.8835 67.3003 50.978 67.274 51.0695 67.2406C51.161 67.2073 51.2453 67.1719 51.3221 67.136C51.6396 66.9854 51.8333 66.8149 51.904 66.6243C51.9744 66.4336 51.9567 66.2254 51.8502 66.0009C51.7206 65.7271 51.527 65.5627 51.2694 65.5072C51.0118 65.451 50.7189 65.5011 50.3902 65.657C50.3356 65.6828 50.2888 65.7084 50.2504 65.7332C50.2118 65.7576 50.1668 65.7859 50.1146 65.8172L49.9863 65.5461L50.6842 65.2161C50.966 65.103 51.2398 65.0363 51.5055 65.0183C51.7715 64.9996 52.006 65.0379 52.2086 65.1328C52.4106 65.2276 52.5614 65.3797 52.6601 65.5877C52.7455 65.7685 52.7753 65.9689 52.7485 66.1894C52.722 66.4092 52.6086 66.6326 52.4071 66.8586C52.2057 67.0847 51.8943 67.2975 51.4726 67.4971C51.3631 67.5484 51.2359 67.6052 51.091 67.6678C50.9462 67.7294 50.7858 67.8023 50.6105 67.8848C50.4846 67.9443 50.3373 68.0158 50.1693 68.0989C50.0007 68.1822 49.8768 68.246 49.7971 68.2903C49.7842 68.2627 49.7695 68.2278 49.7524 68.1857C49.7359 68.1435 49.7192 68.1009 49.7028 68.0582C49.6861 68.0158 49.6753 67.9757 49.6707 67.9382C49.7886 67.875 49.8724 67.812 49.9229 67.7481C49.9727 67.6845 49.9942 67.6088 49.9867 67.5221C49.9788 67.4348 49.9402 67.3176 49.87 67.1699L48.9212 65.166C48.8152 64.9415 48.7143 64.8096 48.6188 64.7708C48.5236 64.7322 48.3827 64.7502 48.1969 64.825C48.1363 64.7528 48.0707 64.6431 48.0007 64.4957C48.1131 64.4491 48.2476 64.3902 48.4051 64.3194C48.5622 64.2481 48.6875 64.1907 48.781 64.147C48.8519 64.1128 48.9396 64.0713 49.0436 64.0219C49.1474 63.9728 49.2552 63.9201 49.366 63.8648C49.4768 63.8087 49.5777 63.7558 49.6681 63.7066Z" fill="#2B9740"/>
<path d="M36.5268 45.1422C36.0616 44.1355 35.3672 43.2903 34.821 42.3433C35.1756 43.4114 35.8914 44.2507 36.5268 45.1422Z" fill="#EC1C26"/>
<path d="M37.0697 31.5129C37.1114 31.5024 37.1579 31.4833 37.1897 31.4466C37.2251 31.406 37.1983 31.3964 37.1717 31.3872C37.0671 31.3507 36.696 31.4464 36.5223 31.555C36.5018 31.5684 36.4801 31.5809 36.4615 31.5954C36.3869 31.6527 36.2682 31.7244 36.2824 31.7714C36.2987 31.8256 36.4266 31.7685 36.5141 31.7292C36.7022 31.6448 36.8885 31.5588 37.0697 31.5129Z" fill="#EC1C26"/>
<path d="M46.7528 45.1646C46.2567 43.5347 45.6557 41.9446 44.9314 40.4021C44.9 40.3356 44.8792 40.2026 44.7826 40.2463C44.6819 40.2917 44.6257 40.4168 44.6477 40.4887C44.6547 40.5122 44.6678 40.5337 44.6784 40.5563C45.5242 42.3836 46.2231 44.2634 46.7205 46.2116H47.0472C46.9571 45.861 46.8585 45.5121 46.7528 45.1646Z" fill="#EC1C26"/>
<path d="M35.0433 55.8422H35.2709C35.4313 54.6777 35.5873 53.5144 35.5495 52.3282C35.5315 51.7678 35.6654 51.2017 35.853 50.6619C36.0169 50.1899 36.3504 49.8281 36.687 49.4832C37.0585 49.1025 37.1653 48.5972 37.3622 48.1204C37.2138 48.1763 37.1607 48.3082 37.1105 48.4324C36.9503 48.8287 36.6916 49.1541 36.4057 49.4645C36.2387 49.6456 36.0786 49.8349 35.9355 50.035C35.4326 50.7378 35.383 51.5725 35.3038 52.3863C35.245 52.99 35.3389 53.605 35.2669 54.2099C35.2022 54.7552 35.123 55.2987 35.0433 55.8422Z" fill="#EC1C26"/>
<path d="M36.5225 32.3772C36.5353 32.4808 36.6739 32.4779 36.7676 32.499C36.7909 32.5042 36.8161 32.5029 36.8405 32.5042C37.0452 32.5073 37.4114 32.2609 37.4814 32.0735C37.4992 32.0261 37.5172 31.9776 37.4656 31.9427C37.4193 31.9112 37.3697 31.9287 37.3289 31.9568C37.1505 32.079 36.9464 32.1325 36.7422 32.1907C36.6472 32.2177 36.508 32.2581 36.5225 32.3772Z" fill="#EC1C26"/>
<path d="M36.5043 34.3324C36.5043 34.3324 36.5451 34.5297 36.6423 34.4448C36.6928 34.4005 36.9054 34.251 36.9054 34.251C36.802 34.1898 36.5043 34.3324 36.5043 34.3324Z" fill="#EC1C26"/>
<path d="M42.4872 33.5741C42.9137 33.9588 43.3385 34.3465 43.8361 34.641C44.0703 34.7792 44.311 34.9025 44.5848 34.9424C44.6484 34.9519 44.7338 34.9806 44.7606 34.9069C44.7928 34.8182 44.693 34.8123 44.6394 34.7875C44.0589 34.5152 43.5011 34.2028 42.9778 33.8311C42.7889 33.6968 42.6072 33.5524 42.4099 33.4034C42.3946 33.5035 42.4483 33.539 42.4872 33.5741Z" fill="#EC1C26"/>
<path d="M46.9594 36.5194C47.0241 36.4187 46.993 36.3638 46.971 36.3136C46.6864 35.6582 46.4425 34.9828 46.0727 34.3678C45.1468 32.8281 43.9218 31.519 42.7022 30.215C42.0332 29.4993 41.2977 28.8518 40.5403 28.2306C40.2833 28.02 40.0543 27.7698 39.7449 27.6184C42.6471 30.1705 45.2675 32.9492 46.9594 36.5194Z" fill="#EC1C26"/>
<path d="M41.1803 32.1718C40.7536 31.4365 40.3042 30.7377 39.6799 30.1367C40.0859 30.9123 40.5293 31.6048 41.1803 32.1718Z" fill="#EC1C26"/>
<path d="M37.2757 30.2534C37.2889 30.2716 37.2915 30.2973 37.3036 30.3333C36.2995 30.2859 35.5241 29.8479 34.9393 29.0521C34.8649 28.9507 34.8147 28.7682 34.68 28.7908C34.5529 28.8121 34.5389 28.9968 34.4981 29.1179C34.3366 29.5954 34.213 30.0794 34.3467 30.5722C34.3669 30.6466 34.4186 30.7232 34.3706 30.8239C34.1591 30.7526 34.034 30.5946 33.9594 30.4035C33.7343 29.8249 33.8657 29.2627 34.1731 28.721C34.2218 28.6352 34.2839 28.613 34.375 28.6201C35.5974 28.7116 36.5641 29.2559 37.2757 30.2534ZM37.6819 30.8239C38.1271 31.3213 38.4801 31.781 38.9014 32.2964C39.785 33.3778 40.8016 34.3195 41.9164 35.1577C42.5806 35.6566 43.1761 36.0523 43.889 36.4786C44.065 36.5839 44.0279 36.6359 43.8772 36.7125C43.1702 37.0723 42.5054 37.4934 41.9562 38.0753C41.8579 38.1791 41.7971 38.1473 41.7258 38.045C41.3784 37.5461 41.0682 37.1577 40.7544 36.6348C40.7015 36.5466 40.741 36.5473 40.6449 36.5194C40.4689 36.4681 40.5034 36.3921 40.5879 36.2776C40.7298 36.0847 40.8312 35.8677 40.9166 35.6444C40.9427 35.5761 40.8994 35.4236 40.8211 35.3422C40.7191 35.3683 40.721 35.4642 40.6868 35.5325C40.6059 35.6939 40.5361 35.8616 40.4472 36.0183C40.3199 36.2425 40.1639 36.413 39.8862 36.4911C39.5502 36.5852 39.2529 36.7921 38.8944 36.8488C38.3368 36.9367 38.0233 36.741 37.9079 36.1973C37.896 36.1413 37.889 36.0773 37.857 36.0338C37.7461 35.8835 37.7604 35.749 37.8749 35.609C37.9129 35.5627 37.9653 35.5061 37.9052 35.4216C37.7756 35.4636 37.7426 35.5943 37.67 35.6852C37.6081 35.7624 37.5603 35.8598 37.4344 35.8001C37.347 35.7587 37.2856 35.6972 37.2871 35.5926C37.2887 35.4592 37.4017 35.4747 37.482 35.4497C37.5912 35.4153 37.7084 35.4028 37.8047 35.3332C37.8381 35.3091 37.8752 35.2801 37.8602 35.2338C37.8434 35.1825 37.7955 35.1871 37.7578 35.2033C37.4591 35.3323 37.078 35.272 36.8386 35.1976C36.6464 35.1382 36.63 34.9301 36.6322 34.7761C36.6343 34.6212 36.585 34.6159 36.4777 34.6067C36.4127 34.6008 36.3476 34.5903 36.2844 34.5736C35.921 34.4797 35.8648 34.3992 35.8486 34.0292C35.8352 33.7341 35.7865 33.4398 35.783 33.1449C35.7755 32.4788 35.3674 32.0077 35.0207 31.5015C34.5584 30.827 34.4099 30.2488 34.6284 29.4367C34.6536 29.3431 34.6712 29.243 34.7598 29.1443C34.8814 29.2862 35.0008 29.4251 35.1195 29.5644C35.6779 30.2205 36.3667 30.4911 37.2066 30.5714C37.419 30.5916 37.5502 30.6767 37.6819 30.8239ZM38.5846 44.2671C38.2043 43.7943 37.8352 43.3348 37.466 42.8756C37.6586 42.9098 37.7687 43.0439 37.8859 43.1619C38.1222 43.3998 38.3463 43.6495 38.5786 43.891C38.6861 44.0029 38.6905 44.1138 38.5846 44.2671ZM35.8806 41.7982C36.0612 41.7666 36.1637 41.846 36.2605 41.9351C36.49 42.1467 36.7096 42.37 36.949 42.5695C37.1245 42.7156 37.1899 42.8699 37.071 43.1132C36.6262 42.7136 36.2552 42.2735 35.8806 41.7982ZM38.5293 44.6483C38.2881 45.4689 38.0417 46.2876 37.8032 47.1088C37.7593 47.26 37.6371 47.303 37.5219 47.3621C36.9648 47.6464 36.9527 47.6572 36.5172 47.2045C35.6502 46.3031 35.0977 45.2201 34.7427 44.0302C34.7006 43.8886 34.6995 43.7399 34.7304 43.5224C35.157 44.2869 35.534 45.093 35.9548 45.8472C36.0395 45.676 35.9785 45.5071 35.9366 45.4296C35.67 44.9381 35.4146 44.4392 35.1223 43.963C34.8943 43.5918 34.7833 43.1832 34.653 42.7786C34.6008 42.6167 34.5841 42.4552 34.7287 42.3215C34.8092 42.2467 34.7642 42.1521 34.7609 42.0644C34.7561 41.9327 34.7342 41.7772 34.8794 41.7166C35.0381 41.6501 35.0806 41.8057 35.157 41.9211C35.4885 42.4216 35.8179 42.9238 36.1347 43.4336C36.3888 43.8426 36.7316 44.1754 37.0365 44.5407C37.0763 44.5886 37.1928 44.643 37.2573 44.5816C37.324 44.5181 37.234 44.4642 37.1936 44.4227C36.5205 43.7344 36.0305 42.9146 35.5247 42.1058C35.4945 42.0574 35.4618 42.0095 35.4348 41.9588C35.4014 41.8961 35.3948 41.8305 35.4515 41.7774C35.5162 41.7168 35.5965 41.7236 35.6533 41.7769C35.7549 41.8722 35.849 41.9766 35.9368 42.0848C36.5652 42.8596 37.2939 43.5382 37.9994 44.2388C38.0384 44.2779 38.0746 44.3297 38.2346 44.3036C38.0123 44.0817 37.8319 43.8886 37.6369 43.7113C37.4471 43.5387 37.3295 43.3293 37.2621 43.0867C37.2487 43.0386 37.2356 42.9837 37.2941 42.9581C37.3393 42.9381 37.3694 42.9783 37.3946 43.0096C37.7674 43.4695 38.1389 43.9308 38.5124 44.3904C38.5815 44.4749 38.5543 44.5638 38.5293 44.6483ZM55.0738 28.6016H46.5067V20.0344C46.5067 19.4472 46.0306 18.9711 45.4434 18.9711H29.96C29.3726 18.9711 28.8965 19.4472 28.8965 20.0344V28.6016H20.3295C19.7421 28.6016 19.266 29.0778 19.266 29.6649V45.1483C19.266 45.7355 19.7421 46.2116 20.3295 46.2116H28.8965V54.7786C28.8965 55.3661 29.3726 55.8422 29.96 55.8422H33.7959C33.8637 54.3251 34.1439 52.8432 34.7162 51.4093C34.8827 50.9921 35.0113 50.561 35.0956 50.1197C35.2382 49.3724 35.6301 48.808 36.2076 48.3527C36.6969 47.9668 37.22 47.6339 37.8008 47.3803C37.8175 47.4941 37.7696 47.5624 37.7229 47.6295C37.5539 47.8713 37.4585 48.1557 37.3378 48.4164C37.2136 48.6847 37.2735 49.0345 37.3264 49.3419C37.5443 50.6066 37.5079 51.8619 37.2285 53.1133C37.0216 54.0406 36.9924 54.9579 37.3641 55.8422H37.6579C37.3358 55.0499 37.2873 54.2253 37.4708 53.377C37.6891 52.3664 37.8194 51.3533 37.7347 50.3187C37.729 50.2503 38.8463 51.2278 39.2915 51.9506C39.322 51.9999 39.3986 52.0866 39.4769 52.0333C39.5388 51.9912 39.493 51.8854 39.4618 51.842C39.1164 51.3608 38.786 50.8895 38.3065 50.5289C37.8181 50.1616 37.6492 49.6853 37.6147 49.0836C37.5632 48.1825 37.846 47.5499 38.6214 47.0538C39.381 46.5675 39.756 45.7969 39.9651 44.9401C39.9814 44.8738 39.9823 44.754 39.8949 44.7336C39.7863 44.7082 39.7927 44.8383 39.7753 44.9092C39.7104 45.1733 39.627 45.4312 39.5195 45.6809C39.2305 46.3532 38.8573 46.6452 38.1966 47.0693C38.2971 46.8484 38.366 46.6924 38.4384 46.5379C38.9121 45.5255 39.304 44.6897 39.9112 43.7427C40.3149 43.1128 40.6451 42.4832 40.9345 41.7912C40.9688 41.7087 40.9675 41.5658 40.8727 41.436C39.9877 43.3478 38.743 45.0496 38.0125 47.0217C38.0116 46.878 38.0468 46.7518 38.0825 46.6263C38.3136 45.8206 38.6219 45.0342 38.7669 44.2074C38.9435 43.1999 39.2727 42.2623 39.8484 41.4191C39.9353 41.292 40.0738 41.0818 40.1517 40.9488C40.7138 39.9889 41.3389 39.0746 42.1038 38.2631C42.5479 37.7918 43.0985 37.4625 43.6268 37.0976C44.1771 36.7178 44.6548 36.7665 45.1832 37.1118C46.2456 37.8067 47.07 38.7338 47.7168 39.8008C48.1794 40.5638 48.5135 41.4046 48.9087 42.2088C49.018 42.4315 49.0972 42.6632 49.172 42.899C49.3497 43.4619 49.4314 44.0554 49.7074 44.5873C49.7074 44.4227 49.796 44.184 49.796 44.0196C49.6681 43.823 49.628 43.5933 49.556 43.3758C48.9967 41.6841 48.3729 40.0266 47.1939 38.6425C46.5399 37.8743 45.8592 37.1443 44.9221 36.7094C44.7198 36.6155 44.4957 36.5883 44.3013 36.4738C43.5786 36.0468 42.899 35.5562 42.2083 35.0809C40.298 33.7666 38.9168 31.9489 37.5166 30.1556C36.7625 29.1895 35.8578 28.5457 34.5999 28.4298C34.4338 28.4147 34.377 28.2885 34.4685 28.1492C35.1489 27.112 36.0781 26.3627 37.1675 25.7895C38.9374 24.8588 40.644 24.9351 42.3204 26.0384C43.2106 26.6244 43.8307 27.4394 44.4091 28.3052C45.6426 30.1518 46.6149 32.1352 47.486 34.1716C47.6003 34.4389 47.7058 34.7096 47.8156 34.9789C47.6791 34.8479 47.5865 34.6951 47.493 34.5433C47.3941 34.382 47.2973 34.2197 47.1937 34.0612C47.1024 33.9217 47.0379 33.7565 46.8677 33.6303C46.844 33.8109 46.8343 33.9116 46.8876 33.9991C47.6817 35.3054 48.6132 36.5646 49.1716 37.9981C49.2953 38.3151 49.6896 39.4057 49.6896 39.4057C49.6927 39.4136 50.9142 42.5267 51.6185 46.2116H55.0738C55.6611 46.2116 56.1373 45.7355 56.1373 45.1483V29.6649C56.1373 29.0778 55.6611 28.6016 55.0738 28.6016Z" fill="#EC1C26"/>
<path d="M49.7074 41.2802C49.7074 41.1979 49.7074 41.1156 49.7074 41.0333C49.5534 40.8078 49.5481 40.5342 49.4327 40.2893C49.1663 39.7223 48.8536 39.1843 48.4887 38.6741C47.3028 37.0147 46.0312 35.4223 44.7336 33.85C44.4459 33.5013 44.1556 33.1548 43.8649 32.8088C43.8256 32.7621 43.6891 32.6859 43.6231 32.7382C43.539 32.8044 43.638 32.8645 43.6775 32.9174C43.7464 33.0096 43.8214 33.0969 43.8952 33.1851C45.2922 34.8564 46.67 36.5425 47.9149 38.3329C48.5728 39.2793 49.1566 40.2691 49.7074 41.2802Z" fill="#EC1C26"/>
</svg>
