<svg width="25" height="25" viewBox="0 0 25 25" fill="none" xmlns="http://www.w3.org/2000/svg">
<g clip-path="url(#clip0_51_879)">
<path d="M10.9337 21.8715C16.972 21.8715 21.8672 16.9765 21.8672 10.938C21.8672 4.89955 16.9721 0.0045166 10.9337 0.0045166C4.8952 0.0045166 0.000114441 4.8996 0.000114441 10.9381C0.000114441 16.9765 4.89525 21.8715 10.9337 21.8715ZM10.9337 3.1284C15.2468 3.1284 18.7433 6.62488 18.7433 10.9381C18.7433 15.2512 15.2468 18.7477 10.9337 18.7477C6.62048 18.7477 3.124 15.2512 3.124 10.9381C3.124 6.62488 6.62053 3.1284 10.9337 3.1284Z" fill="#32C190"/>
<path d="M23.429 24.9954C23.8442 24.9978 24.2432 24.8348 24.538 24.5424C25.1505 23.935 25.1545 22.946 24.547 22.3336C24.544 22.3305 24.541 22.3275 24.538 22.3245L18.6651 16.4516C18.0311 15.8392 17.0206 15.8567 16.4081 16.4907C15.7956 17.1247 15.8131 18.1352 16.4471 18.7477L22.32 24.5424C22.6148 24.8348 23.0138 24.9978 23.429 24.9954Z" fill="#32C190"/>
</g>
<defs>
<clipPath id="clip0_51_879">
<rect width="25" height="25" fill="white" transform="matrix(-1 0 0 1 25 0)"/>
</clipPath>
</defs>
</svg>
