<svg width="25" height="15" viewBox="0 0 25 15" fill="none" xmlns="http://www.w3.org/2000/svg">
<path d="M11.5245 13.9889L0.399387 3.09686C0.141869 2.84494 0 2.50865 0 2.15007C0 1.7915 0.141869 1.45521 0.399387 1.20329L1.21849 0.401162C1.75222 -0.120786 2.61969 -0.120786 3.15262 0.401162L12.4948 9.54748L21.8474 0.391013C22.1049 0.139093 22.4482 0 22.8142 0C23.1807 0 23.524 0.139093 23.7817 0.391013L24.6006 1.19314C24.8581 1.44526 25 1.78135 25 2.13993C25 2.4985 24.8581 2.83479 24.6006 3.08671L13.4653 13.9889C13.207 14.2414 12.8621 14.3801 12.4954 14.3793C12.1273 14.3801 11.7826 14.2414 11.5245 13.9889Z" fill="#32C190"/>
</svg>
