<svg width="32" height="32" viewBox="0 0 32 32" fill="none" xmlns="http://www.w3.org/2000/svg">
<path fill-rule="evenodd" clip-rule="evenodd" d="M21.292 1.292C21.3849 1.19888 21.4952 1.12499 21.6167 1.07458C21.7382 1.02416 21.8685 0.998215 22 0.998215C22.1315 0.998215 22.2618 1.02416 22.3833 1.07458C22.5048 1.12499 22.6151 1.19888 22.708 1.292L30.708 9.292C30.8011 9.38489 30.875 9.49524 30.9254 9.61673C30.9758 9.73822 31.0018 9.86847 31.0018 10C31.0018 10.1315 30.9758 10.2618 30.9254 10.3833C30.875 10.5048 30.8011 10.6151 30.708 10.708L26.904 14.512L25.246 21.138C25.1199 21.6425 24.8648 22.1056 24.5058 22.4818C24.1468 22.8581 23.6961 23.1345 23.198 23.284L2.508 29.492L8.716 8.8C8.86563 8.30252 9.14189 7.85243 9.51771 7.49377C9.89354 7.13512 10.3561 6.88022 10.86 6.754L17.486 5.098L21.292 1.292ZM17.692 7.108L11.346 8.694C11.1775 8.73605 11.0229 8.82123 10.8974 8.94116C10.7718 9.06109 10.6797 9.21164 10.63 9.378L5.49 26.508L22.624 21.368C22.7894 21.3179 22.9389 21.2258 23.0581 21.1006C23.1773 20.9755 23.262 20.8216 23.304 20.654L24.892 14.306L17.692 7.106V7.108Z" fill="white"/>
<path fill-rule="evenodd" clip-rule="evenodd" d="M5.664 26.456L16 18C16.3956 18 16.7822 17.8827 17.1111 17.6629C17.44 17.4432 17.6964 17.1308 17.8478 16.7654C17.9991 16.3999 18.0387 15.9978 17.9616 15.6098C17.8844 15.2219 17.6939 14.8655 17.4142 14.5858C17.1345 14.3061 16.7781 14.1156 16.3902 14.0384C16.0022 13.9613 15.6001 14.0009 15.2346 14.1522C14.8692 14.3036 14.5568 14.56 14.3371 14.8889C14.1173 15.2178 14 15.6044 14 16L5.544 26.336L5.492 26.508L5.664 26.456Z" fill="white"/>
</svg>
