<svg width="32" height="32" viewBox="0 0 32 32" fill="none" xmlns="http://www.w3.org/2000/svg">
<path d="M15.9867 2.66667C8.62669 2.66667 2.66669 8.64001 2.66669 16C2.66669 23.36 8.62669 29.3333 15.9867 29.3333C23.36 29.3333 29.3334 23.36 29.3334 16C29.3334 8.64001 23.36 2.66667 15.9867 2.66667ZM16 26.6667C10.1067 26.6667 5.33335 21.8933 5.33335 16C5.33335 10.1067 10.1067 5.33334 16 5.33334C21.8934 5.33334 26.6667 10.1067 26.6667 16C26.6667 21.8933 21.8934 26.6667 16 26.6667ZM16.6667 9.33334H14.6667V17.3333L21.6667 21.5333L22.6667 19.8933L16.6667 16.3333V9.33334Z" fill="white"/>
</svg>
