<svg width="32" height="32" viewBox="0 0 32 32" fill="none" xmlns="http://www.w3.org/2000/svg">
<g clip-path="url(#clip0_21_182)">
<path d="M10.708 10.238L15.076 1.584C15.1599 1.40991 15.2909 1.26287 15.4543 1.15962C15.6177 1.05637 15.8067 1.00107 16 1C16.366 1 16.732 1.194 16.93 1.584L21.298 10.238L31.094 11.63C31.3382 11.6684 31.5616 11.7898 31.7267 11.9738C31.8917 12.1578 31.9882 12.3931 32 12.64C32.0139 12.8044 31.9906 12.9698 31.9317 13.1239C31.8729 13.278 31.78 13.4168 31.66 13.53L24.614 20.242L26.274 29.702C26.43 30.588 25.554 31.282 24.782 30.886L16 26.374L7.22198 30.886C7.13016 30.9337 7.03174 30.9674 6.92998 30.986C6.24598 31.106 5.59398 30.478 5.72998 29.702L7.38998 20.242L0.345975 13.53C0.236466 13.4264 0.149422 13.3014 0.0902455 13.1627C0.0310691 13.0241 0.00102393 12.8748 0.00197502 12.724C0.00207904 12.5109 0.0608977 12.3019 0.171975 12.12C0.250772 11.9881 0.358173 11.8757 0.486251 11.7908C0.614329 11.706 0.759815 11.6511 0.911975 11.63L10.708 10.238ZM16 24.054C16.1614 24.0533 16.3206 24.0918 16.464 24.166L23.836 27.954L22.448 20.04C22.4152 19.858 22.4276 19.6707 22.4841 19.4946C22.5406 19.3185 22.6394 19.159 22.772 19.03L28.586 13.49L20.482 12.338C20.3142 12.3127 20.155 12.247 20.0181 12.1467C19.8812 12.0464 19.7707 11.9144 19.696 11.762L16.002 4.446L16 4.452V24.052V24.054Z" fill="white"/>
</g>
<defs>
<clipPath id="clip0_21_182">
<rect width="32" height="32" fill="white"/>
</clipPath>
</defs>
</svg>
