<svg width="32" height="32" viewBox="0 0 32 32" fill="none" xmlns="http://www.w3.org/2000/svg">
<path fill-rule="evenodd" clip-rule="evenodd" d="M29.3334 16C29.3334 23.364 23.364 29.3333 16 29.3333C8.63602 29.3333 2.66669 23.364 2.66669 16C2.66669 8.636 8.63602 2.66666 16 2.66666C23.364 2.66666 29.3334 8.636 29.3334 16ZM22.8047 9.52866C22.9297 9.65368 22.9999 9.82322 22.9999 10C22.9999 10.1768 22.9297 10.3463 22.8047 10.4713L10.4714 22.8047C10.3456 22.9261 10.1772 22.9933 10.0024 22.9918C9.82762 22.9903 9.66041 22.9202 9.53681 22.7965C9.4132 22.6729 9.34309 22.5057 9.34157 22.3309C9.34005 22.1561 9.40725 21.9877 9.52869 21.862L21.862 9.52866C21.987 9.40368 22.1566 9.33347 22.3334 9.33347C22.5101 9.33347 22.6797 9.40368 22.8047 9.52866Z" fill="white"/>
</svg>
